<?xml version="1.0" encoding="UTF-8" standalone="no"?>
<svg
   xmlns:dc="http://purl.org/dc/elements/1.1/"
   xmlns:cc="http://creativecommons.org/ns#"
   xmlns:rdf="http://www.w3.org/1999/02/22-rdf-syntax-ns#"
   xmlns:svg="http://www.w3.org/2000/svg"
   xmlns="http://www.w3.org/2000/svg"
   xmlns:sodipodi="http://sodipodi.sourceforge.net/DTD/sodipodi-0.dtd"
   xmlns:inkscape="http://www.inkscape.org/namespaces/inkscape"
   height="58"
   width="160.2"
   inkscape:version="1.0.2 (e86c870879, 2021-01-15, custom)"
   sodipodi:docname="fam_trees_logo.svg"
   xml:space="preserve"
   viewBox="0 0 160.2 58"
   y="0px"
   x="0px"
   id="Layer_1"
   version="1.1"><metadata
   id="metadata1196"><rdf:RDF><cc:Work
       rdf:about=""><dc:format>image/svg+xml</dc:format><dc:type
         rdf:resource="http://purl.org/dc/dcmitype/StillImage" /><dc:title></dc:title></cc:Work></rdf:RDF></metadata><defs
   id="defs1194" /><sodipodi:namedview
   pagecolor="#ffffff"
   bordercolor="#666666"
   borderopacity="1"
   objecttolerance="10"
   gridtolerance="10"
   guidetolerance="10"
   inkscape:pageopacity="0"
   inkscape:pageshadow="2"
   inkscape:window-width="1366"
   inkscape:window-height="745"
   id="namedview1192"
   showgrid="false"
   inkscape:zoom="5.93719"
   inkscape:cx="67.811293"
   inkscape:cy="25.558042"
   inkscape:window-x="-8"
   inkscape:window-y="392"
   inkscape:window-maximized="1"
   inkscape:current-layer="g1187"
   inkscape:document-rotation="0" />
<style
   type="text/css"
   id="style2">
	.st0{fill:#FF0000;}
	.st1{fill:url(#SVGID_1_);}
	.st2{fill:none;}
	.st3{fill:url(#SVGID_2_);}
	.st4{fill:url(#SVGID_3_);}
	.st5{fill:url(#SVGID_4_);}
	.st6{fill:url(#SVGID_5_);}
	.st7{fill:url(#SVGID_6_);}
	.st8{fill:url(#SVGID_7_);}
	.st9{fill:url(#SVGID_8_);}
	.st10{fill:url(#SVGID_9_);}
	.st11{fill:url(#SVGID_10_);}
	.st12{fill:url(#SVGID_11_);}
	.st13{fill:url(#SVGID_12_);}
	.st14{fill:url(#SVGID_13_);}
	.st15{fill:url(#SVGID_14_);}
	.st16{fill:url(#SVGID_15_);}
	.st17{fill:url(#SVGID_16_);}
	.st18{fill:url(#SVGID_17_);}
	.st19{fill:url(#SVGID_18_);}
	.st20{fill:url(#SVGID_19_);}
	.st21{fill:url(#SVGID_20_);}
	.st22{fill:url(#SVGID_21_);}
	.st23{fill:url(#SVGID_22_);}
	.st24{fill:url(#SVGID_23_);}
	.st25{fill:url(#SVGID_24_);}
	.st26{fill:url(#SVGID_25_);}
	.st27{fill:url(#SVGID_26_);}
	.st28{fill:url(#SVGID_27_);}
	.st29{fill:url(#SVGID_28_);}
	.st30{fill:url(#SVGID_29_);}
	.st31{fill:url(#SVGID_30_);}
	.st32{fill:url(#SVGID_31_);}
	.st33{fill:url(#SVGID_32_);}
	.st34{fill:url(#SVGID_33_);}
	.st35{fill:url(#SVGID_34_);}
	.st36{fill:url(#SVGID_35_);}
	.st37{fill:url(#SVGID_36_);}
	.st38{fill:url(#SVGID_37_);}
	.st39{fill:url(#SVGID_38_);}
	.st40{fill:url(#SVGID_39_);}
	.st41{fill:url(#SVGID_40_);}
	.st42{fill:url(#SVGID_41_);}
	.st43{fill:url(#SVGID_42_);}
	.st44{fill:url(#SVGID_43_);}
	.st45{fill:url(#SVGID_44_);}
	.st46{fill:url(#SVGID_45_);}
	.st47{fill:url(#SVGID_46_);}
	.st48{fill:url(#SVGID_47_);}
	.st49{fill:url(#SVGID_48_);}
	.st50{fill:url(#SVGID_49_);}
	.st51{fill:url(#SVGID_50_);}
	.st52{fill:url(#SVGID_51_);}
	.st53{fill:url(#SVGID_52_);}
	.st54{fill:url(#SVGID_53_);}
	.st55{fill:url(#SVGID_54_);}
	.st56{fill:url(#SVGID_55_);}
	.st57{fill:url(#SVGID_56_);}
	.st58{fill:url(#SVGID_57_);}
	.st59{fill:url(#SVGID_58_);}
	.st60{fill:url(#SVGID_59_);}
	.st61{fill:url(#SVGID_60_);}
	.st62{fill:url(#SVGID_61_);}
	.st63{fill:url(#SVGID_62_);}
	.st64{fill:url(#SVGID_63_);}
	.st65{fill:url(#SVGID_64_);}
	.st66{fill:url(#SVGID_65_);}
	.st67{fill:url(#SVGID_66_);}
	.st68{fill:url(#SVGID_67_);}
	.st69{fill:url(#SVGID_68_);}
	.st70{fill:url(#SVGID_69_);}
	.st71{fill:url(#SVGID_70_);}
	.st72{fill:url(#SVGID_71_);}
	.st73{fill:url(#SVGID_72_);}
	.st74{fill:url(#SVGID_73_);}
</style>
<g
   id="g1187">
	<g
   id="g596"
   transform="translate(-72.374885,0.3079617)">
		<circle
   class="st0"
   cx="92.599998"
   cy="55.099998"
   r="0.69999999"
   id="circle4" />
		<circle
   class="st0"
   cx="92.199997"
   cy="53.5"
   r="0.69999999"
   id="circle6" />
		<circle
   class="st0"
   cx="95.099998"
   cy="52.700001"
   r="0.69999999"
   id="circle8" />
		<circle
   class="st0"
   cx="107.9"
   cy="55.599998"
   r="0.69999999"
   id="circle10" />
		<circle
   class="st0"
   cx="109"
   cy="51.799999"
   r="0.69999999"
   id="circle12" />
		<circle
   class="st0"
   cx="109.3"
   cy="54.599998"
   r="0.69999999"
   id="circle14" />
		<circle
   class="st0"
   cx="106.6"
   cy="56.200001"
   r="0.69999999"
   id="circle16" />
		<circle
   class="st0"
   cx="107.2"
   cy="53.5"
   r="0.69999999"
   id="circle18" />
		<circle
   class="st0"
   cx="113.3"
   cy="53.700001"
   r="0.69999999"
   id="circle20" />
		<circle
   class="st0"
   cx="112.3"
   cy="52.5"
   r="0.69999999"
   id="circle22" />
		<circle
   class="st0"
   cx="116.7"
   cy="51.5"
   r="0.69999999"
   id="circle24" />
		<circle
   class="st0"
   cx="118.3"
   cy="50.400002"
   r="0.69999999"
   id="circle26" />
		<circle
   class="st0"
   cx="115.2"
   cy="52.799999"
   r="0.69999999"
   id="circle28" />
		<circle
   class="st0"
   cx="115.7"
   cy="49.900002"
   r="0.69999999"
   id="circle30" />
		<circle
   class="st0"
   cx="117.2"
   cy="49.400002"
   r="0.69999999"
   id="circle32" />
		<circle
   class="st0"
   cx="120.4"
   cy="48.900002"
   r="0.69999999"
   id="circle34" />
		<circle
   class="st0"
   cx="122.7"
   cy="43"
   r="0.69999999"
   id="circle36" />
		<circle
   class="st0"
   cx="120.6"
   cy="45.599998"
   r="0.69999999"
   id="circle38" />
		<circle
   class="st0"
   cx="122.5"
   cy="45.799999"
   r="0.69999999"
   id="circle40" />
		<circle
   class="st0"
   cx="121.4"
   cy="47.099998"
   r="0.69999999"
   id="circle42" />
		<circle
   class="st0"
   cx="126.8"
   cy="39.5"
   r="0.69999999"
   id="circle44" />
		<circle
   class="st0"
   cx="127.8"
   cy="35.700001"
   r="0.69999999"
   id="circle46" />
		<circle
   class="st0"
   cx="124.7"
   cy="42.299999"
   r="0.69999999"
   id="circle48" />
		<circle
   class="st0"
   cx="126"
   cy="41.299999"
   r="0.69999999"
   id="circle50" />
		<circle
   class="st0"
   cx="124.4"
   cy="40.5"
   r="0.69999999"
   id="circle52" />
		<circle
   class="st0"
   cx="124.7"
   cy="35.299999"
   r="0.69999999"
   id="circle54" />
		<circle
   class="st0"
   cx="127"
   cy="34.299999"
   r="0.69999999"
   id="circle56" />
		<circle
   class="st0"
   cx="125"
   cy="28.799999"
   r="0.69999999"
   id="circle58" />
		<circle
   class="st0"
   cx="122"
   cy="17.799999"
   r="0.69999999"
   id="circle60" />
		<circle
   class="st0"
   cx="123.9"
   cy="44.299999"
   r="0.69999999"
   id="circle62" />
		<circle
   class="st0"
   cx="98.5"
   cy="52.5"
   r="0.69999999"
   id="circle64" />
		<circle
   class="st0"
   cx="92.900002"
   cy="49.900002"
   r="0.69999999"
   id="circle66" />
		<circle
   class="st0"
   cx="111.7"
   cy="50.599998"
   r="0.69999999"
   id="circle68" />
		<circle
   class="st0"
   cx="111.4"
   cy="54.099998"
   r="0.69999999"
   id="circle70" />
		<circle
   class="st0"
   cx="104.2"
   cy="50.599998"
   r="0.69999999"
   id="circle72" />
		<circle
   class="st0"
   cx="104.7"
   cy="56.5"
   r="0.69999999"
   id="circle74" />
		<circle
   class="st0"
   cx="101.1"
   cy="56.400002"
   r="0.69999999"
   id="circle76" />
		<circle
   class="st0"
   cx="101.4"
   cy="54.599998"
   r="0.69999999"
   id="circle78" />
		<circle
   class="st0"
   cx="85.099998"
   cy="51.400002"
   r="0.69999999"
   id="circle80" />
		<path
   class="st0"
   d="m 90.1,54.8 c -0.3,0 -0.5,-0.2 -0.6,-0.5 0,-0.2 0,-0.3 0.1,-0.5 0.1,-0.2 0.2,-0.3 0.4,-0.3 0.1,0 0.1,0 0.2,0 0.3,0 0.5,0.2 0.6,0.5 0.1,0.3 -0.1,0.7 -0.4,0.8 -0.2,-0.1 -0.2,0 -0.3,0 z"
   id="path82" />
		<path
   class="st0"
   d="m 88.2,53.7 c -0.3,0 -0.5,-0.2 -0.6,-0.5 0,-0.2 0,-0.3 0.1,-0.5 0.1,-0.2 0.2,-0.3 0.4,-0.3 0.1,0 0.1,0 0.2,0 0.3,0 0.5,0.2 0.6,0.5 0,0.2 0,0.3 -0.1,0.5 -0.1,0.2 -0.2,0.3 -0.4,0.3 0,0 -0.1,0 -0.2,0 z"
   id="path84" />
		<path
   class="st0"
   d="m 80.5,45.8 c -0.3,0 -0.5,-0.2 -0.6,-0.5 0,-0.2 0,-0.3 0.1,-0.5 0.1,-0.2 0.2,-0.3 0.4,-0.3 0.1,0 0.1,0 0.2,0 0.3,0 0.5,0.2 0.6,0.5 0.1,0.3 -0.1,0.7 -0.4,0.8 -0.1,-0.1 -0.2,0 -0.3,0 z"
   id="path86" />
		<path
   class="st0"
   d="m 86.8,51.3 c -0.3,0 -0.5,-0.2 -0.6,-0.5 0,-0.2 0,-0.3 0.1,-0.5 0.1,-0.2 0.2,-0.3 0.4,-0.3 0.1,0 0.1,0 0.2,0 0.3,0 0.5,0.2 0.6,0.5 0,0.2 0,0.3 -0.1,0.5 -0.1,0.2 -0.2,0.3 -0.4,0.3 -0.1,0 -0.1,0 -0.2,0 z"
   id="path88" />
		<path
   class="st0"
   d="m 90.1,50 c -0.3,0 -0.5,-0.2 -0.6,-0.5 0,-0.2 0,-0.3 0.1,-0.5 0.1,-0.2 0.2,-0.3 0.4,-0.3 0.1,0 0.1,0 0.2,0 0.3,0 0.5,0.2 0.6,0.5 0,0.2 0,0.3 -0.1,0.5 -0.1,0.2 -0.2,0.3 -0.4,0.3 -0.1,0 -0.1,0 -0.2,0 z"
   id="path90" />
		<path
   class="st0"
   d="M 97.1,2 C 96.8,2 96.6,1.8 96.5,1.5 96.4,1.2 96.6,0.8 96.9,0.7 c 0.1,0 0.1,0 0.2,0 0.3,0 0.5,0.2 0.6,0.5 0.1,0.3 -0.1,0.7 -0.4,0.8 -0.1,0 -0.1,0 -0.2,0 z"
   id="path92" />
		<path
   class="st0"
   d="m 98.9,1.7 c -0.3,0 -0.5,-0.2 -0.6,-0.5 0,-0.2 0,-0.3 0.1,-0.5 0.1,-0.2 0.2,-0.3 0.4,-0.3 0.1,0 0.1,0 0.2,0 0.3,0 0.5,0.2 0.6,0.5 0,0.2 0,0.3 -0.1,0.5 -0.1,0.2 -0.2,0.3 -0.4,0.3 0,0 -0.1,0 -0.2,0 z"
   id="path94" />
		<path
   class="st0"
   d="m 98.4,3.2 c -0.3,0 -0.5,-0.2 -0.6,-0.5 0,-0.2 0,-0.3 0.1,-0.5 0.1,-0.2 0.2,-0.3 0.4,-0.3 0.1,0 0.1,0 0.2,0 0.3,0 0.5,0.2 0.6,0.5 0.1,0.3 -0.1,0.7 -0.4,0.8 -0.2,0 -0.3,0 -0.3,0 z"
   id="path96" />
		<path
   class="st0"
   d="m 103.6,4 c -0.3,0 -0.5,-0.2 -0.6,-0.5 0,-0.2 0,-0.3 0.1,-0.5 0.1,-0.2 0.2,-0.3 0.4,-0.3 0.1,0 0.1,0 0.2,0 0.3,0 0.5,0.2 0.6,0.5 0.1,0.3 -0.1,0.7 -0.4,0.8 -0.1,0 -0.2,0 -0.3,0 z"
   id="path98" />
		<path
   class="st0"
   d="m 100.1,5.5 c -0.3,0 -0.5,-0.2 -0.6,-0.5 0,-0.2 0,-0.3 0.1,-0.5 0.1,-0.2 0.2,-0.3 0.4,-0.3 0.1,0 0.1,0 0.2,0 0.3,0 0.5,0.2 0.6,0.5 0,0.2 0,0.3 -0.1,0.5 -0.1,0.2 -0.2,0.3 -0.4,0.3 -0.1,0 -0.2,0 -0.2,0 z"
   id="path100" />
		<path
   class="st0"
   d="m 101.8,1.8 c -0.3,0 -0.5,-0.2 -0.6,-0.5 0,-0.2 0,-0.3 0.1,-0.5 0.1,-0.2 0.2,-0.3 0.4,-0.3 0.1,0 0.1,0 0.2,0 0.3,0 0.5,0.2 0.6,0.5 0.1,0.3 -0.1,0.7 -0.4,0.8 -0.2,0 -0.3,0 -0.3,0 z"
   id="path102" />
		<path
   class="st0"
   d="m 103.6,2 c -0.3,0 -0.5,-0.2 -0.6,-0.5 -0.1,-0.3 0.1,-0.7 0.4,-0.8 0.1,0 0.1,0 0.2,0 0.3,0 0.5,0.2 0.6,0.5 0.1,0.3 -0.1,0.7 -0.4,0.8 0,0 -0.1,0 -0.2,0 z"
   id="path104" />
		<path
   class="st0"
   d="m 100.9,3.7 c -0.3,0 -0.5,-0.2 -0.6,-0.5 0,-0.2 0,-0.3 0.1,-0.5 0.1,-0.2 0.2,-0.3 0.4,-0.3 0.1,0 0.1,0 0.2,0 0.3,0 0.5,0.2 0.6,0.5 0,0.2 0,0.3 -0.1,0.5 -0.1,0.2 -0.2,0.3 -0.4,0.3 0,0 -0.1,0 -0.2,0 z"
   id="path106" />
		<path
   class="st0"
   d="m 94.7,4.1 c -0.3,0 -0.5,-0.2 -0.6,-0.5 0,-0.2 0,-0.3 0.1,-0.5 0.1,-0.2 0.2,-0.3 0.4,-0.3 0.1,0 0.1,0 0.2,0 0.3,0 0.5,0.2 0.6,0.5 0,0.2 0,0.3 -0.1,0.5 -0.1,0.1 -0.3,0.2 -0.4,0.3 -0.1,0 -0.1,0 -0.2,0 z"
   id="path108" />
		<path
   class="st0"
   d="m 92.1,5.2 c -0.3,0 -0.5,-0.2 -0.6,-0.5 0,-0.2 0,-0.3 0.1,-0.5 0.1,-0.2 0.2,-0.3 0.4,-0.3 0.1,0 0.1,0 0.2,0 0.3,0 0.5,0.2 0.6,0.5 0,0.2 0,0.3 -0.1,0.5 -0.1,0.2 -0.2,0.3 -0.4,0.3 -0.1,0 -0.2,0 -0.2,0 z"
   id="path110" />
		<path
   class="st0"
   d="m 92.9,3 c -0.3,0 -0.5,-0.2 -0.6,-0.5 0,-0.2 0,-0.3 0.1,-0.5 0.1,-0.2 0.2,-0.3 0.4,-0.3 0.1,0 0.1,0 0.2,0 0.3,0 0.5,0.2 0.6,0.5 0,0.2 0,0.3 -0.1,0.5 C 93.4,2.9 93.3,3 93.1,3 93.1,3 93,3 92.9,3 Z"
   id="path112" />
		<path
   class="st0"
   d="m 94.7,2.5 c -0.3,0 -0.5,-0.2 -0.6,-0.5 0,-0.2 0,-0.3 0.1,-0.5 0.1,-0.2 0.2,-0.3 0.4,-0.3 0.1,0 0.1,0 0.2,0 0.3,0 0.5,0.2 0.6,0.5 0,0.2 0,0.3 -0.1,0.5 -0.1,0.2 -0.2,0.3 -0.4,0.3 -0.1,0 -0.1,0 -0.2,0 z"
   id="path114" />
		<path
   class="st0"
   d="M 96.2,4 C 95.9,4 95.7,3.8 95.6,3.5 95.5,3.2 95.7,2.8 96,2.7 c 0.1,0 0.1,0 0.2,0 0.3,0 0.5,0.2 0.6,0.5 0.1,0.3 -0.1,0.7 -0.4,0.8 -0.1,-0.1 -0.2,0 -0.2,0 z"
   id="path116" />
		<path
   class="st0"
   d="m 94.4,6.6 c -0.3,0 -0.5,-0.2 -0.6,-0.5 0,-0.2 0,-0.3 0.1,-0.5 0.1,-0.2 0.2,-0.3 0.4,-0.3 0.1,0 0.1,0 0.2,0 0.3,0 0.5,0.2 0.6,0.5 0.1,0.3 -0.1,0.7 -0.4,0.8 -0.2,0 -0.3,0 -0.3,0 z"
   id="path118" />
		<path
   class="st0"
   d="m 90.5,7.4 c -0.3,0 -0.5,-0.2 -0.6,-0.5 0,-0.2 0,-0.3 0.1,-0.5 0.1,-0.2 0.2,-0.3 0.4,-0.3 0.1,0 0.1,0 0.2,0 0.3,0 0.5,0.2 0.6,0.5 0,0.2 0,0.3 -0.1,0.5 -0.1,0.2 -0.2,0.3 -0.4,0.3 -0.1,0 -0.1,0 -0.2,0 z"
   id="path120" />
		<path
   class="st0"
   d="M 89.8,6.1 C 89.5,6.1 89.3,5.9 89.2,5.6 89,5.3 89.2,5 89.6,4.9 c 0.1,0 0.1,0 0.2,0 0.3,0 0.5,0.2 0.6,0.5 0,0.2 0,0.3 -0.1,0.5 -0.1,0.2 -0.2,0.3 -0.4,0.3 0,-0.1 -0.1,-0.1 -0.1,-0.1 z"
   id="path122" />
		<path
   class="st0"
   d="m 90.8,4.5 c -0.3,0 -0.5,-0.2 -0.6,-0.5 0,-0.2 0,-0.3 0.1,-0.5 0.1,-0.2 0.2,-0.3 0.4,-0.3 0.1,0 0.1,0 0.2,0 0.3,0 0.5,0.2 0.6,0.5 0,0.2 0,0.3 -0.1,0.5 -0.1,0.2 -0.2,0.3 -0.4,0.3 -0.1,0 -0.2,0 -0.2,0 z"
   id="path124" />
		<path
   class="st0"
   d="M 91.6,3.4 C 91.3,3.4 91.1,3.2 91,2.9 90.9,2.6 91.1,2.2 91.4,2.1 c 0.1,0 0.1,0 0.2,0 0.3,0 0.5,0.2 0.6,0.5 0,0.2 0,0.3 -0.1,0.5 -0.1,0.2 -0.2,0.3 -0.4,0.3 0,0 0,0 -0.1,0 z"
   id="path126" />
		<path
   class="st0"
   d="m 88.9,4.9 c -0.3,0 -0.5,-0.2 -0.6,-0.5 -0.1,-0.3 0.1,-0.7 0.4,-0.8 0.1,0 0.1,0 0.2,0 0.3,0 0.5,0.2 0.6,0.5 0.1,0.3 -0.1,0.7 -0.4,0.8 -0.1,-0.1 -0.2,0 -0.2,0 z"
   id="path128" />
		<path
   class="st0"
   d="M 87.5,5.2 C 87.2,5.2 87,5 86.9,4.7 86.8,4.4 87,4.1 87.4,4 c 0.1,0 0.1,0 0.2,0 0.3,0 0.5,0.2 0.6,0.5 0,0.2 0,0.3 -0.1,0.5 -0.1,0.2 -0.2,0.3 -0.4,0.3 0,-0.1 -0.1,-0.1 -0.2,-0.1 z"
   id="path130" />
		<path
   class="st0"
   d="m 86.3,6.6 c -0.3,0 -0.5,-0.2 -0.6,-0.5 0,-0.2 0,-0.3 0.1,-0.5 0.1,-0.2 0.2,-0.3 0.4,-0.3 0.1,0 0.1,0 0.2,0 0.3,0 0.5,0.2 0.6,0.5 0,0.2 0,0.3 -0.1,0.5 -0.1,0.2 -0.2,0.3 -0.4,0.3 -0.1,0 -0.1,0 -0.2,0 z"
   id="path132" />
		<path
   class="st0"
   d="m 86.6,7.4 c -0.3,0 -0.5,-0.2 -0.6,-0.5 0,-0.2 0,-0.3 0.1,-0.5 0.1,-0.2 0.2,-0.3 0.4,-0.3 0.1,0 0.1,0 0.2,0 0.3,0 0.5,0.2 0.6,0.5 0,0.2 0,0.3 -0.1,0.5 -0.1,0.2 -0.2,0.3 -0.4,0.3 0,0 -0.1,0 -0.2,0 z"
   id="path134" />
		<path
   class="st0"
   d="m 88.1,7.3 c -0.3,0 -0.5,-0.2 -0.6,-0.5 0,-0.2 0,-0.3 0.1,-0.5 C 87.7,6.1 87.8,6 88,6 c 0.1,0 0.1,0 0.2,0 0.3,0 0.5,0.2 0.6,0.5 0,0.2 0,0.3 -0.1,0.5 -0.1,0.2 -0.2,0.3 -0.4,0.3 -0.1,0 -0.2,0 -0.2,0 z"
   id="path136" />
		<path
   class="st0"
   d="m 87.1,8.9 c -0.3,0 -0.5,-0.2 -0.6,-0.5 0,-0.2 0,-0.3 0.1,-0.5 0.1,-0.2 0.2,-0.3 0.4,-0.3 0.1,0 0.1,0 0.2,0 0.3,0 0.5,0.2 0.6,0.5 0.1,0.3 -0.1,0.7 -0.4,0.8 -0.2,0 -0.3,0 -0.3,0 z"
   id="path138" />
		<path
   class="st0"
   d="M 84.8,8.8 C 84.5,8.8 84.3,8.6 84.2,8.3 84.1,8 84.3,7.6 84.6,7.5 c 0.1,0 0.1,0 0.2,0 0.3,0 0.5,0.2 0.6,0.5 0.1,0.3 -0.1,0.7 -0.4,0.8 0,0 -0.1,0 -0.2,0 z"
   id="path140" />
		<path
   class="st0"
   d="m 84.2,7.9 c -0.3,0 -0.5,-0.2 -0.6,-0.5 0,-0.2 0,-0.3 0.1,-0.5 0.1,-0.2 0.2,-0.3 0.4,-0.3 0.1,0 0.1,0 0.2,0 0.3,0 0.5,0.2 0.6,0.5 0.1,0.3 -0.1,0.7 -0.4,0.8 -0.2,0 -0.3,0 -0.3,0 z"
   id="path142" />
		<path
   class="st0"
   d="M 85.1,6.8 C 84.8,6.8 84.6,6.6 84.5,6.3 84.4,6 84.6,5.6 84.9,5.5 c 0.1,0 0.1,0 0.2,0 0.3,0 0.5,0.2 0.6,0.5 0.1,0.3 -0.1,0.7 -0.4,0.8 -0.1,0 -0.1,0 -0.2,0 z"
   id="path144" />
		<path
   class="st0"
   d="m 98.7,8.4 c -0.3,0 -0.5,-0.2 -0.6,-0.5 0,-0.2 0,-0.3 0.1,-0.5 0.1,-0.2 0.2,-0.3 0.4,-0.3 0.1,0 0.1,0 0.2,0 0.3,0 0.5,0.2 0.6,0.5 0.1,0.3 -0.1,0.7 -0.4,0.8 -0.2,0 -0.2,0 -0.3,0 z"
   id="path146" />
		<path
   class="st0"
   d="m 98,5.9 c -0.3,0 -0.5,-0.2 -0.6,-0.5 0,-0.2 0,-0.3 0.1,-0.5 0.1,-0.2 0.2,-0.3 0.4,-0.3 0.1,0 0.1,0 0.2,0 0.3,0 0.5,0.2 0.6,0.5 0,0.2 0,0.3 -0.1,0.5 -0.1,0.2 -0.2,0.3 -0.4,0.3 -0.1,0 -0.1,0 -0.2,0 z"
   id="path148" />
		<path
   class="st0"
   d="m 102.4,6.2 c -0.3,0 -0.5,-0.2 -0.6,-0.5 0,-0.2 0,-0.3 0.1,-0.5 0.1,-0.2 0.2,-0.3 0.4,-0.3 0.1,0 0.1,0 0.2,0 0.3,0 0.5,0.2 0.6,0.5 0,0.2 0,0.3 -0.1,0.5 -0.1,0.2 -0.2,0.3 -0.4,0.3 -0.1,0 -0.1,0 -0.2,0 z"
   id="path150" />
		<path
   class="st0"
   d="m 105.8,5.9 c -0.3,0 -0.5,-0.2 -0.6,-0.5 0,-0.2 0,-0.3 0.1,-0.5 0.1,-0.2 0.2,-0.3 0.4,-0.3 0.1,0 0.1,0 0.2,0 0.3,0 0.5,0.2 0.6,0.5 0.1,0.3 -0.1,0.7 -0.4,0.8 -0.2,0 -0.2,0 -0.3,0 z"
   id="path152" />
		<path
   class="st0"
   d="m 106.9,4.1 c -0.3,0 -0.5,-0.2 -0.6,-0.5 0,-0.2 0,-0.3 0.1,-0.5 0.1,-0.2 0.2,-0.3 0.4,-0.3 0.1,0 0.1,0 0.2,0 0.3,0 0.5,0.2 0.6,0.5 0,0.2 0,0.3 -0.1,0.5 -0.1,0.2 -0.2,0.3 -0.4,0.3 0,0 -0.1,0 -0.2,0 z"
   id="path154" />
		<path
   class="st0"
   d="m 106,3.3 c -0.3,0 -0.5,-0.2 -0.6,-0.5 -0.1,-0.3 0.1,-0.7 0.4,-0.8 0.1,0 0.1,0 0.2,0 0.3,0 0.5,0.2 0.6,0.5 0.1,0.3 -0.1,0.7 -0.4,0.8 -0.1,0 -0.2,0 -0.2,0 z"
   id="path156" />
		<path
   class="st0"
   d="m 105.8,2 c -0.3,0 -0.5,-0.2 -0.6,-0.5 0,-0.2 0,-0.3 0.1,-0.5 0.1,-0.2 0.2,-0.3 0.4,-0.3 0.1,0 0.1,0 0.2,0 0.3,0 0.5,0.2 0.6,0.5 0,0.2 0,0.3 -0.1,0.5 -0.1,0.2 -0.2,0.3 -0.4,0.3 -0.1,0 -0.2,0 -0.2,0 z"
   id="path158" />
		<path
   class="st0"
   d="m 104.9,2 c -0.3,0 -0.5,-0.2 -0.6,-0.5 -0.1,-0.3 0.1,-0.7 0.4,-0.8 0.1,0 0.1,0 0.2,0 0.3,0 0.5,0.2 0.6,0.5 0,0.2 0,0.3 -0.1,0.5 -0.1,0.2 -0.2,0.3 -0.4,0.3 0.1,0 0,0 -0.1,0 z"
   id="path160" />
		<path
   class="st0"
   d="m 104.7,3.3 c -0.3,0 -0.5,-0.2 -0.6,-0.5 0,-0.2 0,-0.3 0.1,-0.5 0.1,-0.2 0.2,-0.3 0.4,-0.3 0.1,0 0.1,0 0.2,0 0.3,0 0.5,0.2 0.6,0.5 0.1,0.3 -0.1,0.7 -0.4,0.8 -0.2,0 -0.3,0 -0.3,0 z"
   id="path162" />
		<path
   class="st0"
   d="m 108.9,3.2 c -0.3,0 -0.5,-0.2 -0.6,-0.5 -0.1,-0.3 0.1,-0.7 0.4,-0.8 0.1,0 0.1,0 0.2,0 0.3,0 0.5,0.2 0.6,0.5 0.1,0.3 -0.1,0.7 -0.4,0.8 -0.1,0 -0.1,0 -0.2,0 z"
   id="path164" />
		<path
   class="st0"
   d="m 110.9,4.2 c -0.3,0 -0.5,-0.2 -0.6,-0.5 0,-0.2 0,-0.3 0.1,-0.5 0.1,-0.2 0.2,-0.3 0.4,-0.3 0.1,0 0.1,0 0.2,0 0.3,0 0.5,0.2 0.6,0.5 0,0.2 0,0.3 -0.1,0.5 -0.1,0.2 -0.2,0.3 -0.4,0.3 -0.1,0 -0.2,0 -0.2,0 z"
   id="path166" />
		<path
   class="st0"
   d="m 110.2,5.8 c -0.3,0 -0.5,-0.2 -0.6,-0.5 0,-0.2 0,-0.3 0.1,-0.5 0.1,-0.2 0.2,-0.3 0.4,-0.3 0.1,0 0.1,0 0.2,0 0.3,0 0.5,0.2 0.6,0.5 0,0.2 0,0.3 -0.1,0.5 -0.1,0.2 -0.2,0.3 -0.4,0.3 -0.1,0 -0.1,0 -0.2,0 z"
   id="path168" />
		<path
   class="st0"
   d="m 107.8,2.4 c -0.3,0 -0.5,-0.2 -0.6,-0.5 0,-0.2 0,-0.3 0.1,-0.5 0.1,-0.2 0.2,-0.3 0.4,-0.3 0.1,0 0.1,0 0.2,0 0.3,0 0.5,0.2 0.6,0.5 0,0.2 0,0.3 -0.1,0.5 -0.1,0.2 -0.2,0.3 -0.4,0.3 -0.1,0 -0.2,0 -0.2,0 z"
   id="path170" />
		<path
   class="st0"
   d="M 100.3,1.8 C 100,1.8 99.8,1.6 99.7,1.3 99.6,1 99.8,0.6 100.1,0.5 c 0.1,0 0.1,0 0.2,0 0.3,0 0.5,0.2 0.6,0.5 0.1,0.3 -0.1,0.7 -0.4,0.8 -0.1,0 -0.1,0 -0.2,0 z"
   id="path172" />
		<path
   class="st0"
   d="m 113.9,6.4 c -0.3,0 -0.5,-0.2 -0.6,-0.5 -0.1,-0.3 0.1,-0.7 0.4,-0.8 0.1,0 0.1,0 0.2,0 0.3,0 0.5,0.2 0.6,0.5 0,0.2 0,0.3 -0.1,0.5 -0.1,0.2 -0.2,0.3 -0.4,0.3 0,0 0,0 -0.1,0 z"
   id="path174" />
		<path
   class="st0"
   d="m 112,7.9 c -0.3,0 -0.5,-0.2 -0.6,-0.5 -0.1,-0.3 0.1,-0.7 0.4,-0.8 0.1,0 0.1,0 0.2,0 0.3,0 0.5,0.2 0.6,0.5 0,0.2 0,0.3 -0.1,0.5 -0.1,0.2 -0.2,0.3 -0.4,0.3 0,0 0,0 -0.1,0 z"
   id="path176" />
		<path
   class="st0"
   d="m 107.2,8.4 c -0.3,0 -0.5,-0.2 -0.6,-0.5 -0.1,-0.3 0.1,-0.7 0.4,-0.8 0.1,0 0.1,0 0.2,0 0.3,0 0.5,0.2 0.6,0.5 0.1,0.3 -0.1,0.7 -0.4,0.8 -0.1,0 -0.1,0 -0.2,0 z"
   id="path178" />
		<path
   class="st0"
   d="m 109.6,9.5 c -0.3,0 -0.5,-0.2 -0.6,-0.5 -0.1,-0.3 0.1,-0.7 0.4,-0.8 0.1,0 0.1,0 0.2,0 0.3,0 0.5,0.2 0.6,0.5 0,0.2 0,0.3 -0.1,0.5 -0.1,0.2 -0.2,0.3 -0.4,0.3 0,0 0,0 -0.1,0 z"
   id="path180" />
		<path
   class="st0"
   d="m 120.4,12.9 c -0.3,0 -0.5,-0.2 -0.6,-0.5 0,-0.2 0,-0.3 0.1,-0.5 0.1,-0.2 0.2,-0.3 0.4,-0.3 0.1,0 0.1,0 0.2,0 0.3,0 0.5,0.2 0.6,0.5 0,0.2 0,0.3 -0.1,0.5 -0.1,0.2 -0.2,0.3 -0.4,0.3 -0.1,0 -0.1,0 -0.2,0 z"
   id="path182" />
		<path
   class="st0"
   d="m 113,4.5 c -0.3,0 -0.5,-0.2 -0.6,-0.5 0,-0.2 0,-0.3 0.1,-0.5 0.1,-0.2 0.2,-0.3 0.4,-0.3 0.1,0 0.1,0 0.2,0 0.3,0 0.5,0.2 0.6,0.5 0.1,0.3 -0.1,0.7 -0.4,0.8 -0.1,0 -0.2,0 -0.3,0 z"
   id="path184" />
		<path
   class="st0"
   d="m 111.9,3.9 c -0.3,0 -0.5,-0.2 -0.6,-0.5 0,-0.2 0,-0.3 0.1,-0.5 0.1,-0.2 0.2,-0.3 0.4,-0.3 0.1,0 0.1,0 0.2,0 0.3,0 0.5,0.2 0.6,0.5 0,0.2 0,0.3 -0.1,0.5 -0.1,0.2 -0.2,0.3 -0.4,0.3 -0.1,0 -0.2,0 -0.2,0 z"
   id="path186" />
		<path
   class="st0"
   d="m 116.7,6.6 c -0.3,0 -0.5,-0.2 -0.6,-0.5 0,-0.2 0,-0.3 0.1,-0.5 0.1,-0.2 0.2,-0.3 0.4,-0.3 0.1,0 0.1,0 0.2,0 0.3,0 0.5,0.2 0.6,0.5 0.1,0.3 -0.1,0.7 -0.4,0.8 -0.2,0 -0.2,0 -0.3,0 z"
   id="path188" />
		<path
   class="st0"
   d="m 81.1,10.4 c -0.3,0 -0.5,-0.2 -0.6,-0.5 0,-0.2 0,-0.3 0.1,-0.5 0.1,-0.2 0.2,-0.3 0.4,-0.3 0.1,0 0.1,0 0.2,0 0.3,0 0.5,0.2 0.6,0.5 0,0.2 0,0.3 -0.1,0.5 -0.1,0.2 -0.2,0.3 -0.4,0.3 -0.1,0 -0.1,0 -0.2,0 z"
   id="path190" />
		<path
   class="st0"
   d="M 82.6,8.8 C 82.3,8.8 82.1,8.6 82,8.3 82,8.1 82,8 82.1,7.8 c 0.1,-0.2 0.2,-0.3 0.4,-0.3 0.1,0 0.1,0 0.2,0 0.3,0 0.5,0.2 0.6,0.5 0,0.2 0,0.3 -0.1,0.5 -0.1,0.2 -0.2,0.3 -0.4,0.3 -0.1,0 -0.2,0 -0.2,0 z"
   id="path192" />
		<path
   class="st0"
   d="m 84.2,11.5 c -0.3,0 -0.5,-0.2 -0.6,-0.5 0,-0.2 0,-0.3 0.1,-0.5 0.1,-0.2 0.2,-0.3 0.4,-0.3 0.1,0 0.1,0 0.2,0 0.3,0 0.5,0.2 0.6,0.5 0,0.2 0,0.3 -0.1,0.5 -0.1,0.2 -0.2,0.3 -0.4,0.3 -0.1,-0.1 -0.2,0 -0.2,0 z"
   id="path194" />
		<path
   class="st0"
   d="m 78.8,13.4 c -0.3,0 -0.5,-0.2 -0.6,-0.5 -0.1,-0.3 0.1,-0.7 0.4,-0.8 0.1,0 0.1,0 0.2,0 0.3,0 0.5,0.2 0.6,0.5 0,0.2 0,0.3 -0.1,0.5 -0.1,0.2 -0.2,0.3 -0.4,0.3 0,0 0,0 -0.1,0 z"
   id="path196" />
		<path
   class="st0"
   d="m 76.7,18.5 c -0.3,0 -0.5,-0.2 -0.6,-0.5 0,-0.2 0,-0.3 0.1,-0.5 0.1,-0.2 0.2,-0.3 0.4,-0.3 0.1,0 0.1,0 0.2,0 0.3,0 0.5,0.2 0.6,0.5 0,0.2 0,0.3 -0.1,0.5 -0.1,0.2 -0.2,0.3 -0.4,0.3 -0.1,-0.1 -0.2,0 -0.2,0 z"
   id="path198" />
		<path
   class="st0"
   d="m 74.8,21.1 c -0.3,0 -0.5,-0.2 -0.6,-0.5 0,-0.2 0,-0.3 0.1,-0.5 0.1,-0.2 0.2,-0.3 0.4,-0.3 0.1,0 0.1,0 0.2,0 0.3,0 0.5,0.2 0.6,0.5 0.1,0.3 -0.1,0.7 -0.4,0.8 -0.2,0 -0.3,0 -0.3,0 z"
   id="path200" />
		<path
   class="st0"
   d="m 80,17.5 c -0.3,0 -0.5,-0.2 -0.6,-0.5 0,-0.2 0,-0.3 0.1,-0.5 0.1,-0.2 0.2,-0.3 0.4,-0.3 0.1,0 0.1,0 0.2,0 0.3,0 0.5,0.2 0.6,0.5 0,0.2 0,0.3 -0.1,0.5 -0.1,0.2 -0.2,0.3 -0.4,0.3 -0.1,0 -0.2,0 -0.2,0 z"
   id="path202" />
		<path
   class="st0"
   d="m 81.7,49.3 c -0.3,0 -0.5,-0.2 -0.6,-0.5 -0.1,-0.3 0.1,-0.7 0.4,-0.8 0.1,0 0.1,0 0.2,0 0.3,0 0.5,0.2 0.6,0.5 0,0.2 0,0.3 -0.1,0.5 -0.1,0.2 -0.2,0.3 -0.4,0.3 0,0 0,0 -0.1,0 z"
   id="path204" />
		<path
   class="st0"
   d="m 83.2,50.6 c -0.3,0 -0.5,-0.2 -0.6,-0.5 0,-0.2 0,-0.3 0.1,-0.5 0.1,-0.2 0.2,-0.3 0.4,-0.3 0.1,0 0.1,0 0.2,0 0.3,0 0.5,0.2 0.6,0.5 0.1,0.3 -0.1,0.7 -0.4,0.8 -0.2,0 -0.2,0 -0.3,0 z"
   id="path206" />
		<path
   class="st0"
   d="m 84,51.1 c -0.3,0 -0.5,-0.2 -0.6,-0.5 -0.1,-0.3 0.1,-0.7 0.4,-0.8 0.1,0 0.1,0 0.2,0 0.3,0 0.5,0.2 0.6,0.5 0.1,0.3 -0.1,0.7 -0.4,0.8 0,0 -0.1,0 -0.2,0 z"
   id="path208" />
		<path
   class="st0"
   d="m 83.4,48.8 c -0.3,0 -0.5,-0.2 -0.6,-0.5 0,-0.2 0,-0.3 0.1,-0.5 0.1,-0.2 0.2,-0.3 0.4,-0.3 0.1,0 0.1,0 0.2,0 0.3,0 0.5,0.2 0.6,0.5 0,0.2 0,0.3 -0.1,0.5 -0.1,0.2 -0.2,0.3 -0.4,0.3 -0.1,0 -0.2,0 -0.2,0 z"
   id="path210" />
		<path
   class="st0"
   d="m 82.2,46.3 c -0.3,0 -0.5,-0.2 -0.6,-0.5 0,-0.2 0,-0.3 0.1,-0.5 0.1,-0.2 0.2,-0.3 0.4,-0.3 0.1,0 0.1,0 0.2,0 0.3,0 0.5,0.2 0.6,0.5 0,0.2 0,0.3 -0.1,0.5 -0.1,0.2 -0.2,0.3 -0.4,0.3 -0.1,0 -0.1,0 -0.2,0 z"
   id="path212" />
		<path
   class="st0"
   d="m 79.1,46.3 c -0.3,0 -0.5,-0.2 -0.6,-0.5 0,-0.2 0,-0.3 0.1,-0.5 0.1,-0.2 0.2,-0.3 0.4,-0.3 0.1,0 0.1,0 0.2,0 0.3,0 0.5,0.2 0.6,0.5 0,0.2 0,0.3 -0.1,0.5 -0.1,0.2 -0.2,0.3 -0.4,0.3 -0.1,0 -0.1,0 -0.2,0 z"
   id="path214" />
		<path
   class="st0"
   d="m 103.9,55.8 c -0.3,0 -0.5,-0.2 -0.6,-0.5 0,-0.2 0,-0.3 0.1,-0.5 0.1,-0.2 0.2,-0.3 0.4,-0.3 0.1,0 0.1,0 0.2,0 0.3,0 0.5,0.2 0.6,0.5 0.1,0.3 -0.1,0.7 -0.4,0.8 -0.2,0 -0.3,0 -0.3,0 z"
   id="path216" />
		<path
   class="st0"
   d="m 73.9,31.9 c -0.3,0 -0.5,-0.2 -0.6,-0.5 0,-0.2 0,-0.3 0.1,-0.5 0.1,-0.2 0.2,-0.3 0.4,-0.3 0.1,0 0.1,0 0.2,0 0.3,0 0.5,0.2 0.6,0.5 0,0.2 0,0.3 -0.1,0.5 -0.1,0.2 -0.2,0.3 -0.4,0.3 -0.1,0 -0.1,0 -0.2,0 z"
   id="path218" />
		<path
   class="st0"
   d="m 78.2,32.3 c -0.3,0 -0.5,-0.2 -0.6,-0.5 0,-0.2 0,-0.3 0.1,-0.5 0.1,-0.2 0.2,-0.3 0.4,-0.3 0.1,0 0.1,0 0.2,0 0.3,0 0.5,0.2 0.6,0.5 0,0.2 0,0.3 -0.1,0.5 -0.1,0.2 -0.2,0.3 -0.4,0.3 0,0 -0.1,0 -0.2,0 z"
   id="path220" />
		<path
   class="st0"
   d="m 128.9,31.3 c -0.3,0 -0.5,-0.2 -0.6,-0.5 0,-0.2 0,-0.3 0.1,-0.5 0.1,-0.2 0.2,-0.3 0.4,-0.3 0.1,0 0.1,0 0.2,0 0.3,0 0.5,0.2 0.6,0.5 0,0.2 0,0.3 -0.1,0.5 -0.1,0.2 -0.2,0.3 -0.4,0.3 -0.1,0 -0.2,0 -0.2,0 z"
   id="path222" />
		<path
   class="st0"
   d="m 128.3,23.6 c -0.3,0 -0.5,-0.2 -0.6,-0.5 0,-0.2 0,-0.3 0.1,-0.5 0.1,-0.2 0.2,-0.3 0.4,-0.3 0.1,0 0.1,0 0.2,0 0.3,0 0.5,0.2 0.6,0.5 0,0.2 0,0.3 -0.1,0.5 -0.1,0.2 -0.2,0.3 -0.4,0.3 -0.1,0 -0.1,0 -0.2,0 z"
   id="path224" />
		<path
   class="st0"
   d="m 126.3,20.1 c -0.3,0 -0.5,-0.2 -0.6,-0.5 0,-0.2 0,-0.3 0.1,-0.5 0.1,-0.2 0.2,-0.3 0.4,-0.3 0.1,0 0.1,0 0.2,0 0.3,0 0.5,0.2 0.6,0.5 0,0.2 0,0.3 -0.1,0.5 -0.1,0.2 -0.2,0.3 -0.4,0.3 -0.1,0 -0.2,0 -0.2,0 z"
   id="path226" />
		<path
   class="st0"
   d="m 125.9,17.1 c -0.3,0 -0.5,-0.2 -0.6,-0.5 -0.1,-0.3 0.1,-0.7 0.4,-0.8 0.1,0 0.1,0 0.2,0 0.3,0 0.5,0.2 0.6,0.5 0,0.2 0,0.3 -0.1,0.5 -0.1,0.2 -0.2,0.3 -0.4,0.3 0,0 -0.1,0 -0.1,0 z"
   id="path228" />
		<path
   class="st0"
   d="m 123.6,12.9 c -0.3,0 -0.5,-0.2 -0.6,-0.5 0,-0.2 0,-0.3 0.1,-0.5 0.1,-0.2 0.2,-0.3 0.4,-0.3 0.1,0 0.1,0 0.2,0 0.3,0 0.5,0.2 0.6,0.5 0,0.2 0,0.3 -0.1,0.5 -0.1,0.2 -0.2,0.3 -0.4,0.3 0,0 -0.1,0 -0.2,0 z"
   id="path230" />
		<path
   class="st0"
   d="m 119.5,10 c -0.3,0 -0.5,-0.2 -0.6,-0.5 -0.1,-0.3 0.1,-0.7 0.4,-0.8 0.1,0 0.1,0 0.2,0 0.3,0 0.5,0.2 0.6,0.5 0,0.2 0,0.3 -0.1,0.5 -0.1,0.2 -0.2,0.3 -0.4,0.3 0.1,-0.1 0,0 -0.1,0 z"
   id="path232" />
		<path
   class="st0"
   d="m 116.7,10 c -0.3,0 -0.5,-0.2 -0.6,-0.5 0,-0.2 0,-0.3 0.1,-0.5 0.1,-0.2 0.2,-0.3 0.4,-0.3 0.1,0 0.1,0 0.2,0 0.3,0 0.5,0.2 0.6,0.5 0.1,0.3 -0.1,0.7 -0.4,0.8 -0.2,-0.1 -0.2,0 -0.3,0 z"
   id="path234" />
		<path
   class="st0"
   d="m 118.2,8.1 c -0.3,0 -0.5,-0.2 -0.6,-0.5 0,-0.2 0,-0.3 0.1,-0.5 0.1,-0.2 0.2,-0.3 0.4,-0.3 0.1,0 0.1,0 0.2,0 0.3,0 0.5,0.2 0.6,0.5 0,0.2 0,0.3 -0.1,0.5 -0.1,0.2 -0.2,0.3 -0.4,0.3 -0.1,0 -0.1,0 -0.2,0 z"
   id="path236" />
		<path
   class="st0"
   d="m 127.3,27.1 c -0.3,0 -0.5,-0.2 -0.6,-0.5 0,-0.2 0,-0.3 0.1,-0.5 0.1,-0.2 0.2,-0.3 0.4,-0.3 0.1,0 0.1,0 0.2,0 0.3,0 0.5,0.2 0.6,0.5 0,0.2 0,0.3 -0.1,0.5 -0.1,0.2 -0.2,0.3 -0.4,0.3 -0.1,0 -0.1,0 -0.2,0 z"
   id="path238" />
		<path
   class="st0"
   d="m 75.5,23.6 c -0.3,0 -0.5,-0.2 -0.6,-0.5 0,-0.2 0,-0.3 0.1,-0.5 0.1,-0.2 0.2,-0.3 0.4,-0.3 0.1,0 0.1,0 0.2,0 0.3,0 0.5,0.2 0.6,0.5 0,0.2 0,0.3 -0.1,0.5 -0.1,0.2 -0.2,0.3 -0.4,0.3 -0.1,0 -0.1,0 -0.2,0 z"
   id="path240" />
		<path
   class="st0"
   d="m 74.3,26.1 c -0.3,0 -0.5,-0.2 -0.6,-0.5 0,-0.2 0,-0.3 0.1,-0.5 0.1,-0.2 0.2,-0.3 0.4,-0.3 0.1,0 0.1,0 0.2,0 0.3,0 0.5,0.2 0.6,0.5 0.1,0.3 -0.1,0.7 -0.4,0.8 -0.2,0 -0.2,0 -0.3,0 z"
   id="path242" />
		<path
   class="st0"
   d="m 76.7,36.7 c -0.3,0 -0.5,-0.2 -0.6,-0.5 0,-0.2 0,-0.3 0.1,-0.5 0.1,-0.2 0.2,-0.3 0.4,-0.3 0.1,0 0.1,0 0.2,0 0.3,0 0.5,0.2 0.6,0.5 0,0.2 0,0.3 -0.1,0.5 -0.1,0.2 -0.2,0.3 -0.4,0.3 -0.1,0 -0.2,0 -0.2,0 z"
   id="path244" />
		<path
   class="st0"
   d="m 76.7,39.5 c -0.3,0 -0.5,-0.2 -0.6,-0.5 0,-0.2 0,-0.3 0.1,-0.5 0.1,-0.2 0.2,-0.3 0.4,-0.3 0.1,0 0.1,0 0.2,0 0.3,0 0.5,0.2 0.6,0.5 0,0.2 0,0.3 -0.1,0.5 -0.1,0.2 -0.2,0.3 -0.4,0.3 -0.1,0 -0.2,0 -0.2,0 z"
   id="path246" />
		<path
   class="st0"
   d="m 74.3,36.7 c -0.3,0 -0.5,-0.2 -0.6,-0.5 -0.1,-0.3 0.1,-0.7 0.4,-0.8 0.1,0 0.1,0 0.2,0 0.3,0 0.5,0.2 0.6,0.5 0.1,0.3 -0.1,0.7 -0.4,0.8 -0.1,0 -0.1,0 -0.2,0 z"
   id="path248" />
		<path
   class="st0"
   d="m 75,38.5 c -0.3,0 -0.5,-0.2 -0.6,-0.5 0,-0.2 0,-0.3 0.1,-0.5 0.1,-0.2 0.2,-0.3 0.4,-0.3 0.1,0 0.1,0 0.2,0 0.3,0 0.5,0.2 0.6,0.5 0,0.2 0,0.3 -0.1,0.5 -0.1,0.2 -0.2,0.3 -0.4,0.3 -0.1,0 -0.2,0 -0.2,0 z"
   id="path250" />
		<path
   class="st0"
   d="m 82.6,35.7 c -0.3,0 -0.5,-0.2 -0.6,-0.5 0,-0.2 0,-0.3 0.1,-0.5 0.1,-0.2 0.2,-0.3 0.4,-0.3 0.1,0 0.1,0 0.2,0 0.3,0 0.5,0.2 0.6,0.5 0,0.2 0,0.3 -0.1,0.5 -0.1,0.2 -0.2,0.3 -0.4,0.3 -0.1,0 -0.2,0 -0.2,0 z"
   id="path252" />
		<path
   class="st0"
   d="m 84.4,43.2 c -0.3,0 -0.5,-0.2 -0.6,-0.5 0,-0.2 0,-0.3 0.1,-0.5 0.1,-0.2 0.2,-0.3 0.4,-0.3 0.1,0 0.1,0 0.2,0 0.3,0 0.5,0.2 0.6,0.5 0,0.2 0,0.3 -0.1,0.5 -0.1,0.2 -0.2,0.3 -0.4,0.3 -0.1,0 -0.1,0 -0.2,0 z"
   id="path254" />
		<path
   class="st0"
   d="m 88.2,45.8 c -0.3,0 -0.5,-0.2 -0.6,-0.5 0,-0.2 0,-0.3 0.1,-0.5 0.1,-0.2 0.2,-0.3 0.4,-0.3 0.1,0 0.1,0 0.2,0 0.3,0 0.5,0.2 0.6,0.5 0.1,0.3 -0.1,0.7 -0.4,0.8 -0.1,-0.1 -0.2,0 -0.3,0 z"
   id="path256" />
		<path
   class="st0"
   d="m 93.2,11.5 c -0.3,0 -0.5,-0.2 -0.6,-0.5 0,-0.2 0,-0.3 0.1,-0.5 0.1,-0.2 0.2,-0.3 0.4,-0.3 0.1,0 0.1,0 0.2,0 0.3,0 0.5,0.2 0.6,0.5 0,0.2 0,0.3 -0.1,0.5 -0.1,0.2 -0.2,0.3 -0.4,0.3 -0.1,-0.1 -0.1,0 -0.2,0 z"
   id="path258" />
		<path
   class="st0"
   d="m 88.7,12.6 c -0.3,0 -0.5,-0.2 -0.6,-0.5 0,-0.2 0,-0.3 0.1,-0.5 0.1,-0.2 0.2,-0.3 0.4,-0.3 0.1,0 0.1,0 0.2,0 0.3,0 0.5,0.2 0.6,0.5 0,0.2 0,0.3 -0.1,0.5 -0.1,0.2 -0.2,0.3 -0.4,0.3 -0.1,0 -0.1,0 -0.2,0 z"
   id="path260" />
		<path
   class="st0"
   d="m 101.3,7.8 c -0.3,0 -0.5,-0.2 -0.6,-0.5 -0.1,-0.3 0.1,-0.7 0.4,-0.8 0.1,0 0.1,0 0.2,0 0.3,0 0.5,0.2 0.6,0.5 0.1,0.3 -0.1,0.7 -0.4,0.8 -0.1,0 -0.1,0 -0.2,0 z"
   id="path262" />
		<path
   class="st0"
   d="m 104.2,7.4 c -0.3,0 -0.5,-0.2 -0.6,-0.5 0,-0.2 0,-0.3 0.1,-0.5 0.1,-0.2 0.2,-0.3 0.4,-0.3 0.1,0 0.1,0 0.2,0 0.3,0 0.5,0.2 0.6,0.5 0,0.2 0,0.3 -0.1,0.5 -0.1,0.2 -0.2,0.3 -0.4,0.3 -0.1,0 -0.2,0 -0.2,0 z"
   id="path264" />
		<path
   class="st0"
   d="m 108.2,5.6 c -0.3,0 -0.5,-0.2 -0.6,-0.5 0,-0.2 0,-0.3 0.1,-0.5 0.1,-0.2 0.2,-0.3 0.4,-0.3 0.1,0 0.1,0 0.2,0 0.3,0 0.5,0.2 0.6,0.5 0.1,0.3 -0.1,0.7 -0.4,0.8 -0.1,0 -0.2,0 -0.3,0 z"
   id="path266" />
		<path
   class="st0"
   d="m 114.4,8.1 c -0.3,0 -0.5,-0.2 -0.6,-0.5 0,-0.2 0,-0.3 0.1,-0.5 0.1,-0.2 0.2,-0.3 0.4,-0.3 0.1,0 0.1,0 0.2,0 0.3,0 0.5,0.2 0.6,0.5 0,0.2 0,0.3 -0.1,0.5 -0.1,0.2 -0.2,0.3 -0.4,0.3 -0.1,0 -0.2,0 -0.2,0 z"
   id="path268" />
		<path
   class="st0"
   d="m 117.2,17.1 c -0.3,0 -0.5,-0.2 -0.6,-0.5 0,-0.2 0,-0.3 0.1,-0.5 0.1,-0.2 0.2,-0.3 0.4,-0.3 0.1,0 0.1,0 0.2,0 0.3,0 0.5,0.2 0.6,0.5 0,0.2 0,0.3 -0.1,0.5 -0.1,0.2 -0.2,0.3 -0.4,0.3 -0.1,0 -0.1,0 -0.2,0 z"
   id="path270" />
		<path
   class="st0"
   d="m 111.4,23.6 c -0.3,0 -0.5,-0.2 -0.6,-0.5 0,-0.2 0,-0.3 0.1,-0.5 0.1,-0.2 0.2,-0.3 0.4,-0.3 0.1,0 0.1,0 0.2,0 0.3,0 0.5,0.2 0.6,0.5 0,0.2 0,0.3 -0.1,0.5 -0.1,0.2 -0.2,0.3 -0.4,0.3 0,0 -0.1,0 -0.2,0 z"
   id="path272" />
		<path
   class="st0"
   d="m 117.3,24.2 c -0.3,0 -0.5,-0.2 -0.6,-0.5 -0.1,-0.3 0.1,-0.7 0.4,-0.8 0.1,0 0.1,0 0.2,0 0.3,0 0.5,0.2 0.6,0.5 0,0.2 0,0.3 -0.1,0.5 -0.1,0.2 -0.2,0.3 -0.4,0.3 0,0 -0.1,0 -0.1,0 z"
   id="path274" />
		<path
   class="st0"
   d="m 119.6,29.6 c -0.3,0 -0.5,-0.2 -0.6,-0.5 -0.1,-0.3 0.1,-0.7 0.4,-0.8 0.1,0 0.1,0 0.2,0 0.3,0 0.5,0.2 0.6,0.5 0,0.2 0,0.3 -0.1,0.5 -0.1,0.2 -0.2,0.3 -0.4,0.3 0,0 -0.1,0 -0.1,0 z"
   id="path276" />
		<path
   class="st0"
   d="m 121.6,24.6 c -0.3,0 -0.5,-0.2 -0.6,-0.5 0,-0.2 0,-0.3 0.1,-0.5 0.1,-0.2 0.2,-0.3 0.4,-0.3 0.1,0 0.1,0 0.2,0 0.3,0 0.5,0.2 0.6,0.5 0.1,0.3 -0.1,0.7 -0.4,0.8 -0.1,0 -0.2,0 -0.3,0 z"
   id="path278" />
		<path
   class="st0"
   d="m 120.6,38.5 c -0.3,0 -0.5,-0.2 -0.6,-0.5 -0.1,-0.3 0.1,-0.7 0.4,-0.8 0.1,0 0.1,0 0.2,0 0.3,0 0.5,0.2 0.6,0.5 0,0.2 0,0.3 -0.1,0.5 -0.1,0.2 -0.2,0.3 -0.4,0.3 0,0 0,0 -0.1,0 z"
   id="path280" />
		<path
   class="st0"
   d="m 116.7,44.7 c -0.3,0 -0.5,-0.2 -0.6,-0.5 0,-0.2 0,-0.3 0.1,-0.5 0.1,-0.2 0.2,-0.3 0.4,-0.3 0.1,0 0.1,0 0.2,0 0.3,0 0.5,0.2 0.6,0.5 0,0.2 0,0.3 -0.1,0.5 -0.1,0.2 -0.2,0.3 -0.4,0.3 -0.1,-0.1 -0.1,0 -0.2,0 z"
   id="path282" />
		<path
   class="st0"
   d="m 117.3,39.9 c -0.3,0 -0.5,-0.2 -0.6,-0.5 -0.1,-0.3 0.1,-0.7 0.4,-0.8 0.1,0 0.1,0 0.2,0 0.3,0 0.5,0.2 0.6,0.5 0.1,0.3 -0.1,0.7 -0.4,0.8 -0.1,0 -0.2,0 -0.2,0 z"
   id="path284" />
		<path
   class="st0"
   d="m 109.3,47.8 c -0.3,0 -0.5,-0.2 -0.6,-0.5 0,-0.2 0,-0.3 0.1,-0.5 0.1,-0.2 0.2,-0.3 0.4,-0.3 0.1,0 0.1,0 0.2,0 0.3,0 0.5,0.2 0.6,0.5 0,0.2 0,0.3 -0.1,0.5 -0.1,0.2 -0.2,0.3 -0.4,0.3 -0.1,0 -0.1,0 -0.2,0 z"
   id="path286" />
		<path
   class="st0"
   d="m 106.9,49.9 c -0.3,0 -0.5,-0.2 -0.6,-0.5 -0.1,-0.3 0.1,-0.7 0.4,-0.8 0.1,0 0.1,0 0.2,0 0.3,0 0.5,0.2 0.6,0.5 0.1,0.3 -0.1,0.7 -0.4,0.8 0,0 -0.1,0 -0.2,0 z"
   id="path288" />
		<path
   class="st0"
   d="m 104.8,49.5 c -0.3,0 -0.5,-0.2 -0.6,-0.5 0,-0.2 0,-0.3 0.1,-0.5 0.1,-0.2 0.2,-0.3 0.4,-0.3 0.1,0 0.1,0 0.2,0 0.3,0 0.5,0.2 0.6,0.5 0.1,0.3 -0.1,0.7 -0.4,0.8 -0.2,0 -0.2,0 -0.3,0 z"
   id="path290" />
		<path
   class="st0"
   d="m 113.6,48 c -0.3,0 -0.5,-0.2 -0.6,-0.5 -0.1,-0.3 0.1,-0.7 0.4,-0.8 0.1,0 0.1,0 0.2,0 0.3,0 0.5,0.2 0.6,0.5 0.1,0.3 -0.1,0.7 -0.4,0.8 -0.1,0 -0.1,0 -0.2,0 z"
   id="path292" />
		<path
   class="st0"
   d="m 82.1,40.3 c -0.3,0 -0.5,-0.2 -0.6,-0.5 -0.1,-0.3 0.1,-0.7 0.4,-0.8 0.1,0 0.1,0 0.2,0 0.3,0 0.5,0.2 0.6,0.5 0,0.2 0,0.3 -0.1,0.5 -0.1,0.2 -0.2,0.3 -0.4,0.3 0,0 -0.1,0 -0.1,0 z"
   id="path294" />
		<path
   class="st0"
   d="m 79.5,31.3 c -0.3,0 -0.5,-0.2 -0.6,-0.5 0,-0.2 0,-0.3 0.1,-0.5 0.1,-0.2 0.2,-0.3 0.4,-0.3 0.1,0 0.1,0 0.2,0 0.3,0 0.5,0.2 0.6,0.5 0.1,0.3 -0.1,0.7 -0.4,0.8 -0.2,0 -0.3,0 -0.3,0 z"
   id="path296" />
		<path
   class="st0"
   d="m 77.4,28 c -0.3,0 -0.5,-0.2 -0.6,-0.5 0,-0.2 0,-0.3 0.1,-0.5 0.1,-0.2 0.2,-0.3 0.4,-0.3 0.1,0 0.1,0 0.2,0 0.3,0 0.5,0.2 0.6,0.5 0,0.2 0,0.3 -0.1,0.5 -0.1,0.2 -0.2,0.3 -0.4,0.3 -0.1,-0.1 -0.1,0 -0.2,0 z"
   id="path298" />
		<path
   class="st0"
   d="m 78.8,22.5 c -0.3,0 -0.5,-0.2 -0.6,-0.5 -0.1,-0.3 0.1,-0.7 0.4,-0.8 0.1,0 0.1,0 0.2,0 0.3,0 0.5,0.2 0.6,0.5 0,0.2 0,0.3 -0.1,0.5 -0.1,0.2 -0.2,0.3 -0.4,0.3 0,0 0,0 -0.1,0 z"
   id="path300" />
		<path
   class="st0"
   d="m 94.7,12.5 c -0.3,0 -0.5,-0.2 -0.6,-0.5 0,-0.2 0,-0.3 0.1,-0.5 0.1,-0.2 0.2,-0.3 0.4,-0.3 0.1,0 0.1,0 0.2,0 0.3,0 0.5,0.2 0.6,0.5 0.1,0.3 -0.1,0.7 -0.4,0.8 -0.2,0 -0.2,0 -0.3,0 z"
   id="path302" />
		<path
   class="st0"
   d="m 85.1,29 c -0.3,0 -0.5,-0.2 -0.6,-0.5 -0.1,-0.3 0.1,-0.7 0.4,-0.8 0.1,0 0.1,0 0.2,0 0.3,0 0.5,0.2 0.6,0.5 0,0.2 0,0.3 -0.1,0.5 -0.1,0.2 -0.2,0.3 -0.4,0.3 0,0 0,0 -0.1,0 z"
   id="path304" />
		<path
   class="st0"
   d="m 111.2,40.3 c -0.3,0 -0.5,-0.2 -0.6,-0.5 0,-0.2 0,-0.3 0.1,-0.5 0.1,-0.2 0.2,-0.3 0.4,-0.3 0.1,0 0.1,0 0.2,0 0.3,0 0.5,0.2 0.6,0.5 0,0.2 0,0.3 -0.1,0.5 -0.1,0.2 -0.2,0.3 -0.4,0.3 0,0 -0.1,0 -0.2,0 z"
   id="path306" />
		<path
   class="st0"
   d="m 108.6,40.4 c -0.3,0 -0.5,-0.2 -0.6,-0.5 0,-0.2 0,-0.3 0.1,-0.5 0.1,-0.2 0.2,-0.3 0.4,-0.3 0.1,0 0.1,0 0.2,0 0.3,0 0.5,0.2 0.6,0.5 0.1,0.3 -0.1,0.7 -0.4,0.8 -0.2,0 -0.2,0 -0.3,0 z"
   id="path308" />
		<path
   class="st0"
   d="m 113.3,33.3 c -0.3,0 -0.5,-0.2 -0.6,-0.5 0,-0.2 0,-0.3 0.1,-0.5 0.1,-0.2 0.2,-0.3 0.4,-0.3 0.1,0 0.1,0 0.2,0 0.3,0 0.5,0.2 0.6,0.5 0,0.2 0,0.3 -0.1,0.5 -0.1,0.2 -0.2,0.3 -0.4,0.3 -0.1,0 -0.1,0 -0.2,0 z"
   id="path310" />
		<path
   class="st0"
   d="m 103.6,44.7 c -0.3,0 -0.5,-0.2 -0.6,-0.5 0,-0.2 0,-0.3 0.1,-0.5 0.1,-0.2 0.2,-0.3 0.4,-0.3 0.1,0 0.1,0 0.2,0 0.3,0 0.5,0.2 0.6,0.5 0,0.2 0,0.3 -0.1,0.5 -0.1,0.2 -0.2,0.3 -0.4,0.3 -0.1,0 -0.1,0 -0.2,0 z"
   id="path312" />
		<path
   class="st0"
   d="m 80,26.1 c -0.3,0 -0.5,-0.2 -0.6,-0.5 -0.1,-0.3 0.1,-0.7 0.4,-0.8 0.1,0 0.1,0 0.2,0 0.3,0 0.5,0.2 0.6,0.5 0,0.2 0,0.3 -0.1,0.5 -0.1,0.2 -0.2,0.3 -0.4,0.3 0,0 -0.1,0 -0.1,0 z"
   id="path314" />
		<path
   class="st0"
   d="m 85.5,16.1 c -0.3,0 -0.5,-0.2 -0.6,-0.5 0,-0.2 0,-0.3 0.1,-0.5 0.1,-0.2 0.2,-0.3 0.4,-0.3 0.1,0 0.1,0 0.2,0 0.3,0 0.5,0.2 0.6,0.5 0,0.2 0,0.3 -0.1,0.5 -0.1,0.2 -0.2,0.3 -0.4,0.3 -0.1,0 -0.1,0 -0.2,0 z"
   id="path316" />
		<path
   class="st0"
   d="m 100.4,9.5 c -0.3,0 -0.5,-0.2 -0.6,-0.5 -0.1,-0.3 0.1,-0.7 0.4,-0.8 0.1,0 0.1,0 0.2,0 0.3,0 0.5,0.2 0.6,0.5 0,0.2 0,0.3 -0.1,0.5 -0.1,0.2 -0.2,0.3 -0.4,0.3 0,0 0,0 -0.1,0 z"
   id="path318" />
		<path
   class="st0"
   d="m 111.2,14.4 c -0.3,0 -0.5,-0.2 -0.6,-0.5 0,-0.2 0,-0.3 0.1,-0.5 0.1,-0.2 0.2,-0.3 0.4,-0.3 0.1,0 0.1,0 0.2,0 0.3,0 0.5,0.2 0.6,0.5 0,0.2 0,0.3 -0.1,0.5 -0.1,0.2 -0.2,0.3 -0.4,0.3 0,0 -0.1,0 -0.2,0 z"
   id="path320" />
		<path
   class="st0"
   d="m 105.6,12.9 c -0.3,0 -0.5,-0.2 -0.6,-0.5 0,-0.2 0,-0.3 0.1,-0.5 0.1,-0.2 0.2,-0.3 0.4,-0.3 0.1,0 0.1,0 0.2,0 0.3,0 0.5,0.2 0.6,0.5 0,0.2 0,0.3 -0.1,0.5 -0.1,0.2 -0.2,0.3 -0.4,0.3 -0.1,0 -0.2,0 -0.2,0 z"
   id="path322" />
		<path
   class="st0"
   d="m 111.8,15.9 c -0.3,0 -0.5,-0.2 -0.6,-0.5 0,-0.2 0,-0.3 0.1,-0.5 0.1,-0.2 0.2,-0.3 0.4,-0.3 0.1,0 0.1,0 0.2,0 0.3,0 0.5,0.2 0.6,0.5 0,0.2 0,0.3 -0.1,0.5 -0.1,0.2 -0.2,0.3 -0.4,0.3 -0.1,0 -0.2,0 -0.2,0 z"
   id="path324" />
		<path
   class="st0"
   d="m 93.6,45.4 c -0.3,0 -0.5,-0.2 -0.6,-0.5 0,-0.2 0,-0.3 0.1,-0.5 0.1,-0.2 0.2,-0.3 0.4,-0.3 0.1,0 0.1,0 0.2,0 0.3,0 0.5,0.2 0.6,0.5 0.1,0.3 -0.1,0.7 -0.4,0.8 -0.2,0 -0.3,0 -0.3,0 z"
   id="path326" />
		<path
   class="st0"
   d="m 98.4,48.5 c -0.3,0 -0.5,-0.2 -0.6,-0.5 0,-0.2 0,-0.3 0.1,-0.5 0.1,-0.2 0.2,-0.3 0.4,-0.3 0.1,0 0.1,0 0.2,0 0.3,0 0.5,0.2 0.6,0.5 0,0.2 0,0.3 -0.1,0.5 -0.1,0.2 -0.2,0.3 -0.4,0.3 -0.1,0 -0.2,0 -0.2,0 z"
   id="path328" />
		<path
   class="st0"
   d="m 97.9,43 c -0.3,0 -0.5,-0.2 -0.6,-0.5 0,-0.2 0,-0.3 0.1,-0.5 0.1,-0.2 0.2,-0.3 0.4,-0.3 0.1,0 0.1,0 0.2,0 0.3,0 0.5,0.2 0.6,0.5 0,0.2 0,0.3 -0.1,0.5 -0.1,0.2 -0.2,0.3 -0.4,0.3 -0.1,0 -0.2,0 -0.2,0 z"
   id="path330" />
		<path
   class="st0"
   d="m 95.7,37.4 c -0.3,0 -0.5,-0.2 -0.6,-0.5 0,-0.2 0,-0.3 0.1,-0.5 0.1,-0.2 0.2,-0.3 0.4,-0.3 0.1,0 0.1,0 0.2,0 0.3,0 0.5,0.2 0.6,0.5 0,0.2 0,0.3 -0.1,0.5 -0.1,0.2 -0.2,0.3 -0.4,0.3 -0.1,0 -0.1,0 -0.2,0 z"
   id="path332" />
		<path
   class="st0"
   d="m 109.2,35.3 c -0.3,0 -0.5,-0.2 -0.6,-0.5 0,-0.2 0,-0.3 0.1,-0.5 0.1,-0.2 0.2,-0.3 0.4,-0.3 0.1,0 0.1,0 0.2,0 0.3,0 0.5,0.2 0.6,0.5 0,0.2 0,0.3 -0.1,0.5 -0.1,0.2 -0.2,0.3 -0.4,0.3 -0.1,0 -0.2,0 -0.2,0 z"
   id="path334" />
		<path
   class="st0"
   d="m 110.9,25.1 c -0.3,0 -0.5,-0.2 -0.6,-0.5 0,-0.2 0,-0.3 0.1,-0.5 0.1,-0.2 0.2,-0.3 0.4,-0.3 0.1,0 0.1,0 0.2,0 0.3,0 0.5,0.2 0.6,0.5 0,0.2 0,0.3 -0.1,0.5 -0.1,0.2 -0.2,0.3 -0.4,0.3 0,0 -0.1,0 -0.2,0 z"
   id="path336" />
		<path
   class="st0"
   d="m 115.4,29.6 c -0.3,0 -0.5,-0.2 -0.6,-0.5 0,-0.2 0,-0.3 0.1,-0.5 0.1,-0.2 0.2,-0.3 0.4,-0.3 0.1,0 0.1,0 0.2,0 0.3,0 0.5,0.2 0.6,0.5 0,0.2 0,0.3 -0.1,0.5 -0.1,0.2 -0.2,0.3 -0.4,0.3 -0.1,0 -0.2,0 -0.2,0 z"
   id="path338" />
		<path
   class="st0"
   d="m 88.7,25.6 c -0.3,0 -0.5,-0.2 -0.6,-0.5 0,-0.2 0,-0.3 0.1,-0.5 0.1,-0.2 0.2,-0.3 0.4,-0.3 0.1,0 0.1,0 0.2,0 0.3,0 0.5,0.2 0.6,0.5 0,0.2 0,0.3 -0.1,0.5 -0.1,0.2 -0.2,0.3 -0.4,0.3 -0.1,0 -0.1,0 -0.2,0 z"
   id="path340" />
		<path
   class="st0"
   d="m 89.5,37.8 c -0.3,0 -0.5,-0.2 -0.6,-0.5 -0.1,-0.3 0.1,-0.7 0.4,-0.8 0.1,0 0.1,0 0.2,0 0.3,0 0.5,0.2 0.6,0.5 0,0.2 0,0.3 -0.1,0.5 -0.1,0.2 -0.2,0.3 -0.4,0.3 0,0 0,0 -0.1,0 z"
   id="path342" />
		<path
   class="st0"
   d="m 92.2,31 c -0.3,0 -0.5,-0.2 -0.6,-0.5 0,-0.2 0,-0.3 0.1,-0.5 0.1,-0.2 0.2,-0.3 0.4,-0.3 0.1,0 0.1,0 0.2,0 0.3,0 0.5,0.2 0.6,0.5 0.1,0.3 -0.1,0.7 -0.4,0.8 -0.2,0 -0.2,0 -0.3,0 z"
   id="path344" />
		<path
   class="st0"
   d="m 92.1,44.7 c -0.3,0 -0.5,-0.2 -0.6,-0.5 0,-0.2 0,-0.3 0.1,-0.5 0.1,-0.2 0.2,-0.3 0.4,-0.3 0.1,0 0.1,0 0.2,0 0.3,0 0.5,0.2 0.6,0.5 0,0.2 0,0.3 -0.1,0.5 -0.1,0.2 -0.2,0.3 -0.4,0.3 -0.1,-0.1 -0.2,0 -0.2,0 z"
   id="path346" />
		<path
   class="st0"
   d="m 82.1,33.9 c -0.3,0 -0.5,-0.2 -0.6,-0.5 0,-0.2 0,-0.3 0.1,-0.5 0.1,-0.2 0.2,-0.3 0.4,-0.3 0.1,0 0.1,0 0.2,0 0.3,0 0.5,0.2 0.6,0.5 0,0.2 0,0.3 -0.1,0.5 -0.1,0.2 -0.2,0.3 -0.4,0.3 -0.1,0 -0.2,0 -0.2,0 z"
   id="path348" />
		<path
   class="st0"
   d="m 117.3,38.1 c -0.3,0 -0.5,-0.2 -0.6,-0.5 -0.1,-0.3 0.1,-0.7 0.4,-0.8 0.1,0 0.1,0 0.2,0 0.3,0 0.5,0.2 0.6,0.5 0,0.2 0,0.3 -0.1,0.5 -0.1,0.2 -0.2,0.3 -0.4,0.3 0,0 -0.1,0 -0.1,0 z"
   id="path350" />
		<path
   class="st0"
   d="m 119.8,34.9 c -0.2,0 -0.5,-0.1 -0.6,-0.3 -0.2,-0.3 -0.1,-0.7 0.2,-0.9 0.1,-0.1 0.2,-0.1 0.3,-0.1 0.2,0 0.5,0.1 0.6,0.3 0.1,0.2 0.1,0.3 0.1,0.5 0,0.2 -0.2,0.3 -0.3,0.4 -0.1,0.1 -0.2,0.1 -0.3,0.1 z"
   id="path352" />
		<path
   class="st0"
   d="m 88.3,36.2 c -0.2,0 -0.5,-0.1 -0.6,-0.3 -0.1,-0.2 -0.1,-0.3 -0.1,-0.5 0,-0.2 0.2,-0.3 0.3,-0.4 0.1,-0.1 0.2,-0.1 0.3,-0.1 0.2,0 0.5,0.1 0.6,0.3 0.2,0.3 0.1,0.7 -0.2,0.9 -0.1,0.1 -0.2,0.1 -0.3,0.1 z"
   id="path354" />
		<path
   class="st0"
   d="m 115.4,45 c -0.2,0 -0.5,-0.1 -0.6,-0.3 -0.2,-0.3 -0.1,-0.7 0.2,-0.9 0.1,-0.1 0.2,-0.1 0.3,-0.1 0.2,0 0.5,0.1 0.6,0.3 0.2,0.3 0.1,0.7 -0.2,0.9 -0.1,0.1 -0.2,0.1 -0.3,0.1 z"
   id="path356" />
		<path
   class="st0"
   d="m 110.2,46.4 c -0.2,0 -0.5,-0.1 -0.6,-0.3 -0.1,-0.2 -0.1,-0.3 -0.1,-0.5 0,-0.2 0.2,-0.3 0.3,-0.4 0.1,-0.1 0.2,-0.1 0.3,-0.1 0.2,0 0.5,0.1 0.6,0.3 0.2,0.3 0.1,0.7 -0.2,0.9 -0.1,0 -0.2,0.1 -0.3,0.1 z"
   id="path358" />
		<path
   class="st0"
   d="m 126.8,32.3 c -0.3,0 -0.5,-0.2 -0.6,-0.4 -0.1,-0.3 0.1,-0.7 0.4,-0.8 0.1,0 0.1,0 0.2,0 0.3,0 0.5,0.2 0.6,0.4 0.1,0.2 0.1,0.3 0,0.5 -0.1,0.2 -0.2,0.3 -0.4,0.3 -0.1,0 -0.2,0 -0.2,0 z"
   id="path360" />
		<path
   class="st0"
   d="m 127.1,25.1 c -0.3,0 -0.5,-0.2 -0.6,-0.4 -0.1,-0.3 0.1,-0.7 0.4,-0.8 0.1,0 0.1,0 0.2,0 0.3,0 0.5,0.2 0.6,0.4 0.1,0.2 0.1,0.3 0,0.5 -0.1,0.2 -0.2,0.3 -0.4,0.3 0,0 -0.1,0 -0.2,0 z"
   id="path362" />
		<path
   class="st0"
   d="m 85.1,23.5 c -0.3,0 -0.5,-0.2 -0.6,-0.4 -0.1,-0.3 0.1,-0.7 0.4,-0.8 0.1,0 0.1,0 0.2,0 0.3,0 0.5,0.2 0.6,0.4 0.1,0.3 -0.1,0.7 -0.4,0.8 0,0 -0.1,0 -0.2,0 z"
   id="path364" />
		<path
   class="st0"
   d="m 91.9,20.4 c -0.3,0 -0.5,-0.2 -0.6,-0.4 -0.1,-0.3 0.1,-0.7 0.4,-0.8 0.1,0 0.1,0 0.2,0 0.3,0 0.5,0.2 0.6,0.4 0.1,0.2 0,0.3 0,0.5 -0.1,0.2 -0.2,0.3 -0.4,0.3 0,0 -0.1,0 -0.2,0 z"
   id="path366" />
		<path
   class="st0"
   d="m 99.4,16.1 c -0.3,0 -0.5,-0.2 -0.6,-0.4 -0.1,-0.3 0.1,-0.7 0.4,-0.8 0.1,0 0.1,0 0.2,0 0.3,0 0.5,0.2 0.6,0.4 0.1,0.2 0,0.3 0,0.5 -0.1,0.2 -0.2,0.3 -0.4,0.3 0,0 -0.1,0 -0.2,0 z"
   id="path368" />
		<path
   class="st0"
   d="m 77.6,43.9 c -0.3,0 -0.5,-0.2 -0.6,-0.5 -0.1,-0.3 0.1,-0.7 0.4,-0.8 0.1,0 0.1,0 0.2,0 0.3,0 0.5,0.2 0.6,0.5 0,0.2 0,0.3 -0.1,0.5 -0.1,0.2 -0.2,0.3 -0.4,0.3 0,0 -0.1,0 -0.1,0 z"
   id="path370" />
		<path
   class="st0"
   d="m 78.8,42.2 c -0.3,0 -0.5,-0.2 -0.6,-0.5 -0.1,-0.3 0.1,-0.7 0.4,-0.8 0.1,0 0.1,0 0.2,0 0.3,0 0.5,0.2 0.6,0.5 0.1,0.3 -0.1,0.7 -0.4,0.8 -0.1,0 -0.1,0 -0.2,0 z"
   id="path372" />
		<path
   class="st0"
   d="m 76,41.6 c -0.3,0 -0.5,-0.2 -0.6,-0.5 0,-0.2 0,-0.3 0.1,-0.5 0.1,-0.2 0.2,-0.3 0.4,-0.3 0.1,0 0.1,0 0.2,0 0.3,0 0.5,0.2 0.6,0.5 0.1,0.3 -0.1,0.7 -0.4,0.8 -0.1,0 -0.2,0 -0.3,0 z"
   id="path374" />
		<path
   class="st0"
   d="m 86.6,53.1 c -0.3,0 -0.5,-0.2 -0.6,-0.5 -0.1,-0.3 0.1,-0.7 0.4,-0.8 0.1,0 0.1,0 0.2,0 0.3,0 0.5,0.2 0.6,0.5 0,0.2 0,0.3 -0.1,0.5 -0.1,0.2 -0.2,0.3 -0.4,0.3 0,0 0,0 -0.1,0 z"
   id="path376" />
		<path
   class="st0"
   d="m 94.2,56.3 c -0.3,0 -0.5,-0.2 -0.6,-0.5 0,-0.2 0,-0.3 0.1,-0.5 0.1,-0.2 0.2,-0.3 0.4,-0.3 0.1,0 0.1,0 0.2,0 0.3,0 0.5,0.2 0.6,0.5 0,0.2 0,0.3 -0.1,0.5 -0.1,0.2 -0.2,0.3 -0.4,0.3 -0.1,0 -0.1,0 -0.2,0 z"
   id="path378" />
		<path
   class="st0"
   d="m 96,56.8 c -0.3,0 -0.5,-0.2 -0.6,-0.5 0,-0.2 0,-0.3 0.1,-0.5 0.1,-0.2 0.2,-0.3 0.4,-0.3 0.1,0 0.1,0 0.2,0 0.3,0 0.5,0.2 0.6,0.5 0,0.2 0,0.3 -0.1,0.5 -0.1,0.2 -0.2,0.3 -0.4,0.3 -0.1,0 -0.2,0 -0.2,0 z"
   id="path380" />
		<path
   class="st0"
   d="m 95.2,54.8 c -0.3,0 -0.5,-0.2 -0.6,-0.5 -0.1,-0.3 0.1,-0.7 0.4,-0.8 0.1,0 0.1,0 0.2,0 0.3,0 0.5,0.2 0.6,0.5 0,0.2 0,0.3 -0.1,0.5 -0.1,0.2 -0.2,0.3 -0.4,0.3 0,-0.1 0,0 -0.1,0 z"
   id="path382" />
		<path
   class="st0"
   d="m 98.5,57.1 c -0.3,0 -0.5,-0.2 -0.6,-0.4 -0.1,-0.2 -0.1,-0.3 0,-0.5 0.1,-0.2 0.2,-0.3 0.3,-0.4 0.1,0 0.2,-0.1 0.3,-0.1 0.3,0 0.5,0.2 0.6,0.4 0.1,0.2 0.1,0.3 0,0.5 -0.1,0.2 -0.2,0.3 -0.3,0.4 -0.1,0 -0.2,0.1 -0.3,0.1 z"
   id="path384" />
		<g
   id="g592">
			<circle
   class="st0"
   cx="109"
   cy="51.799999"
   r="1"
   id="circle386" />
			<path
   class="st0"
   d="m 109.3,53.6 c -0.6,0 -1,0.5 -1,1 0,0 0,0.1 0,0.1 -0.1,0 -0.2,-0.1 -0.4,-0.1 -0.4,0 -0.8,0.3 -0.9,0.6 -0.1,0 -0.2,-0.1 -0.4,-0.1 -0.5,0 -1,0.4 -1,0.9 -0.1,-0.3 -0.4,-0.5 -0.7,-0.6 0.1,-0.2 0.1,-0.4 0,-0.6 -0.1,-0.4 -0.5,-0.7 -1,-0.7 -0.1,0 -0.2,0 -0.3,0 -0.3,0.1 -0.5,0.2 -0.6,0.5 -0.1,0.2 -0.2,0.5 -0.1,0.8 0.1,0.4 0.4,0.7 0.8,0.7 0,0.1 -0.1,0.2 -0.1,0.4 0,0.6 0.5,1 1,1 0.5,0 1,-0.4 1,-0.9 0.2,0.3 0.5,0.6 0.9,0.6 0.4,0 0.8,-0.3 0.9,-0.6 0.1,0 0.2,0.1 0.4,0.1 0.6,0 1,-0.5 1,-1 0,0 0,-0.1 0,-0.1 0.1,0 0.2,0.1 0.4,0.1 0.6,0 1,-0.5 1,-1 0,-0.5 -0.3,-1.1 -0.9,-1.1 z"
   id="path388" />
			<circle
   class="st0"
   cx="107.2"
   cy="53.5"
   r="1"
   id="circle390" />
			<path
   class="st0"
   d="m 113.3,52.7 c 0,0 0,0 0,0 0,-0.1 0,-0.1 0,-0.2 0,-0.6 -0.4,-1 -1,-1 0.3,-0.2 0.4,-0.5 0.4,-0.8 0,-0.6 -0.5,-1 -1,-1 -0.5,0 -1,0.5 -1,1 0,0.6 0.4,1 1,1 -0.3,0.2 -0.4,0.5 -0.4,0.8 0,0.2 0.1,0.4 0.2,0.6 0,0 0,0 0,0 -0.6,0 -1,0.5 -1,1 0,0.5 0.5,1 1,1 0.5,0 0.9,-0.4 1,-0.9 0.2,0.3 0.5,0.5 0.9,0.5 0.6,0 1,-0.5 1,-1 0,-0.5 -0.5,-1 -1.1,-1 z m -1,0.8 c 0,0 0,0 0,0 0,0 0,0 0,0 0,0 0,0 0,0 0,0 0,0 0,0 z"
   id="path392" />
			<path
   class="st0"
   d="m 118.3,49.4 c 0,0 0,0 0,0 -0.1,0 -0.1,0 0,0 -0.1,-0.6 -0.5,-1 -1.1,-1 -0.4,0 -0.8,0.3 -1,0.7 -0.2,-0.1 -0.3,-0.2 -0.5,-0.2 -0.6,0 -1,0.5 -1,1 0,0.5 0.5,1 1,1 0,0 0.1,0 0.1,0 -0.1,0.2 -0.1,0.3 -0.1,0.5 0,0.6 0.5,1 1,1 0.5,0 1,-0.5 1,-1 0,-0.1 0,-0.1 0,-0.2 0.2,0.1 0.4,0.2 0.6,0.2 0.6,0 1,-0.5 1,-1 0,-0.5 -0.4,-1 -1,-1 z m -1.6,1 c 0,0 -0.1,0 -0.1,0 0,-0.1 0.1,-0.1 0.1,-0.2 0.2,0.1 0.3,0.2 0.5,0.2 0,0 0,0 0.1,0 0,0 0,0 0,0 0,0.1 0,0.1 0,0.2 -0.2,-0.1 -0.4,-0.2 -0.6,-0.2 z"
   id="path394" />
			<circle
   class="st0"
   cx="115.2"
   cy="52.799999"
   r="1"
   id="circle396" />
			<circle
   class="st0"
   cx="120.4"
   cy="48.900002"
   r="1"
   id="circle398" />
			<path
   class="st0"
   d="m 122.5,44.7 c -0.4,0 -0.7,0.2 -0.9,0.5 -0.1,-0.4 -0.5,-0.7 -1,-0.7 -0.6,0 -1,0.5 -1,1 0,0.5 0.4,1 1,1 -0.1,0.1 -0.1,0.3 -0.1,0.5 0,0.6 0.5,1 1,1 0.5,0 1,-0.5 1,-1 0,-0.1 0,-0.2 -0.1,-0.3 0,0 0,0 0.1,0 0.6,0 1,-0.5 1,-1 0,-0.5 -0.5,-1 -1,-1 z m -1,1.4 c 0,0 0,0 0,0 0,0 0,0 0,0 z"
   id="path400" />
			<path
   class="st0"
   d="m 126.8,38.5 c -0.6,0 -1,0.5 -1,1 0,0.3 0.1,0.6 0.3,0.8 0,0 -0.1,0 -0.1,0 -0.2,0 -0.4,0.1 -0.6,0.2 0,-0.5 -0.5,-1 -1,-1 -0.6,0 -1,0.5 -1,1 0,0.5 0.3,0.9 0.7,1 -0.2,0.2 -0.4,0.5 -0.4,0.8 0,0.6 0.5,1 1,1 0.5,0 1,-0.5 1,-1 0,0 0,0 0,0 0.1,0 0.2,0 0.3,0 0.6,0 1,-0.5 1,-1 0,-0.3 -0.1,-0.6 -0.3,-0.8 0,0 0.1,0 0.1,0 0.6,0 1,-0.5 1,-1 0,-0.5 -0.5,-1 -1,-1 z"
   id="path402" />
			<path
   class="st0"
   d="m 128,34.7 c 0.1,-0.1 0.1,-0.3 0.1,-0.4 0,-0.6 -0.5,-1 -1,-1 -0.5,0 -1,0.5 -1,1 0,0.5 0.4,0.9 0.9,1 -0.1,0.1 -0.1,0.3 -0.1,0.4 0,0.6 0.5,1 1,1 0.6,0 1,-0.5 1,-1 -0.1,-0.5 -0.4,-0.9 -0.9,-1 z"
   id="path404" />
			<circle
   class="st0"
   cx="124.7"
   cy="35.299999"
   r="1"
   id="circle406" />
			<circle
   class="st0"
   cx="125"
   cy="28.799999"
   r="1"
   id="circle408" />
			<circle
   class="st0"
   cx="122"
   cy="17.799999"
   r="1"
   id="circle410" />
			<path
   class="st0"
   d="m 123.9,43.3 c -0.1,0 -0.2,0 -0.3,0.1 0,-0.1 0.1,-0.2 0.1,-0.4 0,-0.6 -0.5,-1 -1,-1 -0.5,0 -1,0.5 -1,1 0,0.5 0.5,1 1,1 0.1,0 0.2,0 0.3,-0.1 0,0.1 -0.1,0.2 -0.1,0.4 0,0.6 0.5,1 1,1 0.5,0 1,-0.5 1,-1 0,-0.5 -0.4,-1 -1,-1 z"
   id="path412" />
			<circle
   class="st0"
   cx="98.5"
   cy="52.5"
   r="1"
   id="circle414" />
			<circle
   class="st0"
   cx="92.900002"
   cy="49.900002"
   r="1"
   id="circle416" />
			<path
   class="st0"
   d="m 101.4,53.6 c -0.6,0 -1,0.5 -1,1 0,0.3 0.2,0.6 0.4,0.8 -0.4,0.1 -0.7,0.5 -0.7,1 0,0.6 0.5,1 1,1 0.5,0 1,-0.5 1,-1 0,-0.3 -0.2,-0.6 -0.4,-0.8 0.4,-0.1 0.7,-0.5 0.7,-1 0,-0.6 -0.4,-1 -1,-1 z"
   id="path418" />
			<path
   class="st0"
   d="m 90.1,53.1 c -0.1,0 -0.2,0 -0.3,0 -0.3,0.1 -0.5,0.2 -0.6,0.5 -0.1,0.2 -0.2,0.5 -0.1,0.8 0.1,0.4 0.5,0.7 1,0.7 0.1,0 0.2,0 0.3,0 0.3,-0.1 0.5,-0.2 0.6,-0.5 0.1,-0.3 0.2,-0.5 0.1,-0.8 -0.1,-0.4 -0.5,-0.7 -1,-0.7 z"
   id="path420" />
			<path
   class="st0"
   d="m 89.2,52.8 c -0.1,-0.4 -0.5,-0.7 -1,-0.7 -0.1,0 -0.2,0 -0.3,0 -0.1,0 -0.3,0.1 -0.4,0.2 0,0 0,-0.1 0,-0.1 -0.1,-0.3 -0.3,-0.5 -0.5,-0.6 0.2,-0.1 0.5,-0.2 0.6,-0.5 0.1,-0.2 0.2,-0.5 0.1,-0.8 -0.1,-0.4 -0.5,-0.7 -1,-0.7 -0.1,0 -0.2,0 -0.3,0 -0.3,0.1 -0.5,0.3 -0.6,0.5 -0.1,0.2 -0.1,0.4 -0.1,0.6 -0.2,-0.2 -0.4,-0.3 -0.7,-0.3 0,0 0,0 0,0 0,-0.1 0,-0.2 0,-0.3 -0.1,-0.4 -0.5,-0.7 -0.9,-0.7 -0.1,-0.1 -0.2,-0.2 -0.3,-0.3 0.2,-0.1 0.4,-0.2 0.5,-0.4 0.1,-0.2 0.2,-0.5 0.1,-0.8 -0.1,-0.4 -0.5,-0.7 -1,-0.7 -0.1,0 -0.2,0 -0.3,0 -0.3,0.1 -0.5,0.2 -0.6,0.5 0,0.1 -0.1,0.2 -0.1,0.2 -0.2,-0.2 -0.4,-0.3 -0.7,-0.3 -0.1,0 -0.2,0 -0.3,0 -0.5,0.2 -0.9,0.7 -0.7,1.3 0.1,0.4 0.5,0.7 1,0.7 0.1,0 0.2,0 0.3,0 0.1,0 0.2,-0.1 0.3,-0.2 -0.1,0.2 -0.1,0.5 -0.1,0.7 0.1,0.4 0.5,0.7 0.9,0.7 0.2,0.3 0.5,0.5 0.9,0.5 0,0.6 0.5,1 1,1 0.2,0 0.4,-0.1 0.5,-0.1 0,0.1 0,0.3 0,0.4 0.1,0.4 0.5,0.7 1,0.7 0.1,0 0.2,0 0.3,0 0.1,0 0.3,-0.1 0.4,-0.2 0,0 0,0.1 0,0.1 0.1,0.4 0.5,0.7 1,0.7 0.1,0 0.2,0 0.3,0 0.3,-0.1 0.5,-0.3 0.6,-0.5 0.2,-0.1 0.2,-0.3 0.1,-0.6 z m -6.6,-3.7 c 0,-0.1 0,-0.1 0.1,-0.2 0,0 0.1,0.1 0.1,0.1 -0.1,0 -0.1,0 -0.2,0.1 z m 3.5,2.5 c 0,-0.1 0,-0.1 0,-0.2 0,0 0,-0.1 0,-0.1 0.1,0.1 0.1,0.1 0.2,0.2 -0.1,0 -0.2,0.1 -0.2,0.1 z"
   id="path422" />
			<path
   class="st0"
   d="m 81.2,45.8 c 0,0.1 0,0.1 0,0 0.1,0.5 0.5,0.8 1,0.8 0.1,0 0.2,0 0.3,0 0.3,-0.1 0.5,-0.2 0.6,-0.5 0.1,-0.2 0.2,-0.5 0.1,-0.8 -0.1,-0.4 -0.5,-0.7 -1,-0.7 -0.1,0 -0.2,0 -0.3,0 -0.2,0 -0.3,0.1 -0.4,0.2 0,0 0,0 0,-0.1 -0.1,-0.4 -0.5,-0.7 -1,-0.7 -0.1,0 -0.2,0 -0.3,0 -0.3,0.1 -0.5,0.2 -0.6,0.5 0,0 0,0.1 0,0.1 -0.1,-0.1 -0.3,-0.1 -0.5,-0.1 -0.1,0 -0.2,0 -0.3,0 -0.3,0.1 -0.5,0.2 -0.6,0.5 -0.1,0.2 -0.2,0.5 -0.1,0.8 0.1,0.4 0.5,0.7 1,0.7 0.1,0 0.2,0 0.3,0 0.3,-0.1 0.5,-0.3 0.6,-0.5 0,0 0,-0.1 0,-0.1 0.1,0.1 0.3,0.1 0.5,0.1 0.1,0 0.2,0 0.3,0 0.2,0 0.3,0 0.4,-0.2 z"
   id="path424" />
			<path
   class="st0"
   d="m 90.1,50.4 c 0.1,0 0.2,0 0.3,0 0.3,-0.1 0.5,-0.3 0.6,-0.5 0.1,-0.2 0.2,-0.5 0.1,-0.8 -0.1,-0.4 -0.5,-0.7 -1,-0.7 -0.1,0 -0.2,0 -0.3,0 -0.3,0.1 -0.5,0.2 -0.6,0.5 -0.1,0.2 -0.2,0.5 -0.1,0.8 0.1,0.4 0.5,0.7 1,0.7 z"
   id="path426" />
			<path
   class="st0"
   d="m 97.1,2.4 c 0.1,0 0.2,0 0.3,0 0,0.2 0,0.3 0,0.5 0.1,0.4 0.5,0.7 1,0.7 0.1,0 0.2,0 0.3,0 0.3,-0.1 0.5,-0.2 0.6,-0.5 0.1,-0.2 0.2,-0.5 0.1,-0.8 0,-0.1 -0.1,-0.2 -0.1,-0.2 0.1,0 0.2,-0.1 0.3,-0.1 0.2,0.2 0.4,0.4 0.7,0.4 -0.1,0.1 -0.2,0.2 -0.2,0.3 -0.1,0.2 -0.2,0.5 -0.1,0.8 0.1,0.2 0.2,0.4 0.4,0.6 -0.1,0 -0.2,0 -0.3,0 -0.1,0 -0.2,0 -0.3,0 -0.3,0.1 -0.5,0.2 -0.6,0.5 -0.1,0.2 -0.2,0.5 -0.1,0.8 0.1,0.4 0.5,0.7 1,0.7 0.1,0 0.2,0 0.3,0 0.3,-0.1 0.5,-0.3 0.6,-0.5 0.1,-0.2 0.2,-0.5 0.1,-0.8 -0.1,-0.2 -0.2,-0.4 -0.4,-0.6 0.1,0 0.2,0 0.3,0 0.1,0 0.2,0 0.3,0 0.3,-0.1 0.5,-0.2 0.6,-0.5 0.1,-0.2 0.2,-0.5 0.1,-0.8 -0.1,-0.2 -0.2,-0.4 -0.4,-0.5 0.1,0 0.2,0 0.2,0 0.1,0 0.2,0 0.3,0 0.3,-0.1 0.5,-0.2 0.6,-0.5 0,0 0,0 0,0 0.1,0.3 0.4,0.6 0.8,0.6 0,0 -0.1,0 -0.1,0 -0.3,0.1 -0.5,0.2 -0.6,0.5 -0.1,0.2 -0.2,0.5 -0.1,0.8 0.1,0.4 0.5,0.7 1,0.7 0.1,0 0.2,0 0.3,0 0.3,-0.1 0.6,-0.3 0.7,-0.6 0,0 0,0 0.1,0 0.1,0 0.2,0 0.3,0 0.1,0 0.3,-0.1 0.4,-0.2 0.2,0.1 0.4,0.2 0.6,0.2 0,0 0,0 0,0 0.1,0.4 0.5,0.7 1,0.7 0.1,0 0.2,0 0.3,0 0.1,0 0.2,-0.1 0.3,-0.2 -0.1,0.1 -0.2,0.2 -0.2,0.3 -0.1,0.2 -0.2,0.5 -0.1,0.8 0.1,0.4 0.5,0.7 1,0.7 0.1,0 0.2,0 0.3,0 0.3,-0.1 0.6,-0.4 0.7,-0.7 0,0 0,0.1 0,0.1 0.1,0.4 0.5,0.7 1,0.7 0.1,0 0.2,0 0.3,0 0.3,-0.1 0.5,-0.3 0.6,-0.5 0.1,-0.2 0.2,-0.5 0.1,-0.8 0,-0.1 -0.1,-0.2 -0.1,-0.3 0,0 0.1,0 0.1,0 0.2,-0.1 0.3,-0.2 0.4,-0.3 0.1,0 0.2,0 0.3,0 0.1,0 0.2,0 0.3,0 0.2,0.3 0.5,0.6 0.9,0.6 0.1,0 0.2,0 0.3,0 0.3,-0.1 0.5,-0.2 0.6,-0.5 0.1,-0.2 0.2,-0.5 0.1,-0.8 -0.1,-0.4 -0.5,-0.7 -1,-0.7 -0.1,0 -0.2,0 -0.3,0 -0.2,-0.3 -0.5,-0.6 -0.9,-0.6 -0.1,0 -0.2,0 -0.3,0 -0.2,0.1 -0.3,0.2 -0.4,0.3 -0.1,0 -0.2,0 -0.3,0 -0.1,0 -0.2,0 -0.3,0 -0.3,0.1 -0.5,0.3 -0.6,0.5 -0.1,0.2 -0.2,0.5 -0.1,0.8 0,0.1 0.1,0.2 0.1,0.3 0,0 -0.1,0 -0.1,0 -0.3,0.1 -0.5,0.2 -0.6,0.5 0,0.1 0,0.1 -0.1,0.2 0,0 0,-0.1 0,-0.1 -0.1,-0.4 -0.5,-0.7 -1,-0.7 -0.1,0 -0.2,0 -0.3,0 -0.1,0 -0.2,0.1 -0.3,0.2 0.1,-0.1 0.2,-0.2 0.2,-0.3 0.1,-0.2 0.2,-0.5 0.1,-0.8 0,-0.1 -0.1,-0.2 -0.2,-0.3 0,0 0,0 0,0 0.1,0 0.1,0 0.2,0 0,0 0,0 0,0 0.1,0.4 0.5,0.7 1,0.7 0.1,0 0.2,0 0.3,0 0.5,-0.2 0.9,-0.7 0.7,-1.3 -0.1,-0.4 -0.5,-0.7 -1,-0.7 -0.1,0 -0.1,0 -0.2,0 0,0 0,0 0,0 -0.1,-0.4 -0.5,-0.7 -1,-0.7 -0.1,0 -0.2,0 -0.3,0 -0.3,0.1 -0.5,0.2 -0.6,0.5 -0.1,0.2 -0.2,0.5 -0.1,0.7 0,-0.1 -0.1,-0.1 -0.1,-0.1 0,0 0,0 0,0 0.1,-0.2 0.2,-0.5 0.1,-0.8 -0.1,-0.4 -0.5,-0.7 -1,-0.7 -0.1,0 -0.2,0 -0.3,0 0,0 -0.1,0 -0.1,0.1 -0.1,-0.1 -0.3,-0.1 -0.4,-0.1 -0.1,0 -0.2,0 -0.3,0 -0.1,0 -0.3,0.1 -0.4,0.2 -0.2,-0.2 -0.4,-0.2 -0.7,-0.2 -0.1,0 -0.2,0 -0.3,0 -0.3,0.1 -0.5,0.2 -0.6,0.5 0,0 0,0 0,0 -0.1,-0.4 -0.5,-0.7 -1,-0.7 -0.1,0 -0.2,0 -0.3,0 -0.2,0.1 -0.3,0.2 -0.4,0.3 -0.2,-0.2 -0.4,-0.3 -0.7,-0.3 -0.1,0 -0.2,0 -0.3,0 -0.1,0 -0.2,0.1 -0.3,0.2 C 99.5,0.1 99.2,0 98.9,0 98.8,0 98.7,0 98.6,0 98.3,0.1 98.1,0.2 98,0.5 c 0,0.1 0,0.2 0,0.3 -0.2,-0.3 -0.5,-0.4 -0.8,-0.4 -0.1,0 -0.2,0 -0.3,0 -0.3,0.1 -0.5,0.2 -0.6,0.5 -0.1,0.2 -0.2,0.5 -0.1,0.8 0.1,0.4 0.5,0.7 0.9,0.7 z M 101,1.9 c 0,0 0.1,0.1 0.1,0.1 0,0 -0.1,0 -0.1,-0.1 0,0.1 0,0 0,0 z"
   id="path428" />
			<path
   class="st0"
   d="m 94.4,7 c 0.1,0 0.2,0 0.3,0 C 95.2,6.8 95.6,6.3 95.4,5.7 95.3,5.3 94.9,5 94.4,5 94.3,5 94.2,5 94.1,5 93.8,5.1 93.6,5.2 93.5,5.5 93.4,5.7 93.3,6 93.4,6.3 93.5,6.7 93.9,7 94.4,7 Z"
   id="path430" />
			<path
   class="st0"
   d="m 98,6.3 c 0.1,0 0.2,0 0.3,0 C 98.6,6.2 98.8,6.1 98.9,5.8 99,5.5 99.1,5.3 99,5 98.9,4.6 98.5,4.3 98,4.3 c -0.1,0 -0.2,0 -0.3,0 C 97.4,4.4 97.2,4.6 97.1,4.8 97,5 97,5.3 97,5.6 97.2,6 97.6,6.3 98,6.3 Z"
   id="path432" />
			<path
   class="st0"
   d="m 102.7,6.6 c 0.3,-0.1 0.5,-0.2 0.6,-0.5 0.1,-0.2 0.2,-0.5 0.1,-0.8 -0.1,-0.4 -0.5,-0.7 -1,-0.7 -0.1,0 -0.2,0 -0.3,0 -0.3,0.1 -0.5,0.3 -0.6,0.5 -0.1,0.2 -0.2,0.5 -0.1,0.8 0,0.1 0.1,0.2 0.2,0.3 -0.1,0 -0.2,0 -0.3,0 -0.1,0 -0.2,0 -0.3,0 -0.3,0.1 -0.5,0.2 -0.6,0.5 -0.1,0.2 -0.2,0.5 -0.1,0.8 0,0.2 0.1,0.3 0.2,0.4 -0.1,0 -0.1,0 -0.2,0 -0.1,0 -0.2,0 -0.3,0 C 99.8,8 99.6,8.1 99.5,8.2 99.6,8 99.7,7.7 99.6,7.4 99.5,7 99.1,6.7 98.6,6.7 c -0.1,0 -0.2,0 -0.3,0 C 98.2,6.8 98,7 97.8,7.2 97.7,7.4 97.6,7.7 97.7,8 c 0.1,0.4 0.5,0.7 1,0.7 0.1,0 0.2,0 0.3,0 0.2,-0.1 0.4,-0.2 0.5,-0.3 -0.1,0.2 -0.2,0.5 -0.1,0.8 0.1,0.4 0.5,0.7 1,0.7 0.1,0 0.2,0 0.3,0 0.3,-0.1 0.5,-0.2 0.6,-0.5 0.1,-0.2 0.2,-0.5 0.1,-0.8 0,-0.2 -0.1,-0.3 -0.2,-0.4 0.1,0 0.1,0 0.2,0 0.1,0 0.2,0 0.3,0 0.5,-0.2 0.9,-0.7 0.7,-1.3 0,-0.1 -0.1,-0.2 -0.2,-0.3 0.1,0 0.2,0 0.3,0 0,0 0.1,0 0.2,0 z"
   id="path434" />
			<path
   class="st0"
   d="m 105.8,4.2 c -0.1,0 -0.2,0 -0.3,0 -0.3,0.1 -0.5,0.3 -0.6,0.5 -0.1,0.2 -0.2,0.5 -0.1,0.8 0.1,0.4 0.5,0.7 1,0.7 0.1,0 0.2,0 0.3,0 0.5,-0.2 0.9,-0.7 0.7,-1.3 -0.1,-0.4 -0.6,-0.7 -1,-0.7 z"
   id="path436" />
			<path
   class="st0"
   d="m 113.6,4.7 c -0.3,0.1 -0.5,0.2 -0.6,0.5 -0.1,0.2 -0.2,0.5 -0.1,0.8 0.1,0.4 0.4,0.6 0.8,0.7 -0.1,0.1 -0.2,0.2 -0.2,0.3 -0.1,0.2 -0.2,0.5 -0.1,0.8 0.1,0.4 0.5,0.7 1,0.7 0.1,0 0.2,0 0.3,0 0.3,-0.1 0.5,-0.3 0.6,-0.5 0.1,-0.2 0.2,-0.5 0.1,-0.8 -0.1,-0.4 -0.4,-0.6 -0.8,-0.7 0.1,-0.1 0.2,-0.2 0.2,-0.3 0.1,-0.2 0.2,-0.5 0.1,-0.8 -0.1,-0.4 -0.5,-0.7 -1,-0.7 -0.1,0 -0.2,0 -0.3,0 z"
   id="path438" />
			<path
   class="st0"
   d="m 112,8.2 c 0.1,0 0.2,0 0.3,0 0.3,-0.1 0.5,-0.2 0.6,-0.5 0.1,-0.2 0.2,-0.5 0.1,-0.8 -0.1,-0.4 -0.5,-0.7 -1,-0.7 -0.1,0 -0.2,0 -0.3,0 -0.5,0.2 -0.9,0.7 -0.7,1.3 0.2,0.4 0.6,0.7 1,0.7 z"
   id="path440" />
			<path
   class="st0"
   d="m 107.2,6.7 c -0.1,0 -0.2,0 -0.3,0 -0.5,0.2 -0.9,0.7 -0.7,1.3 0.1,0.4 0.5,0.7 1,0.7 0.1,0 0.2,0 0.3,0 0.3,-0.1 0.5,-0.2 0.6,-0.5 0.1,-0.2 0.2,-0.5 0.1,-0.8 -0.1,-0.4 -0.5,-0.7 -1,-0.7 z"
   id="path442" />
			<path
   class="st0"
   d="m 109.6,7.8 c -0.1,0 -0.2,0 -0.3,0 -0.3,0.1 -0.5,0.2 -0.6,0.5 -0.1,0.2 -0.2,0.5 -0.1,0.8 0.1,0.4 0.5,0.7 1,0.7 0.1,0 0.2,0 0.3,0 0.3,-0.1 0.5,-0.2 0.6,-0.5 0.1,-0.2 0.2,-0.5 0.1,-0.8 -0.1,-0.4 -0.5,-0.7 -1,-0.7 z"
   id="path444" />
			<path
   class="st0"
   d="m 120.1,11.3 c -0.3,0.1 -0.5,0.3 -0.6,0.5 -0.1,0.2 -0.2,0.5 -0.1,0.8 0.1,0.4 0.5,0.7 1,0.7 0.1,0 0.2,0 0.3,0 0.3,-0.1 0.5,-0.2 0.6,-0.5 0.1,-0.2 0.2,-0.5 0.1,-0.8 -0.1,-0.4 -0.5,-0.7 -1,-0.7 -0.1,0 -0.2,0 -0.3,0 z"
   id="path446" />
			<path
   class="st0"
   d="m 116.7,7 c 0.1,0 0.2,0 0.3,0 0.5,-0.2 0.9,-0.7 0.7,-1.3 -0.1,-0.4 -0.5,-0.7 -1,-0.7 -0.1,0 -0.2,0 -0.3,0 -0.3,0.1 -0.5,0.3 -0.6,0.5 -0.1,0.2 -0.2,0.5 -0.1,0.8 0.2,0.4 0.6,0.7 1,0.7 z"
   id="path448" />
			<path
   class="st0"
   d="m 81.1,10.8 c 0.1,0 0.2,0 0.3,0 0.3,-0.1 0.5,-0.3 0.6,-0.5 0.1,-0.2 0.2,-0.5 0.1,-0.8 -0.1,-0.4 -0.5,-0.7 -1,-0.7 -0.1,0 -0.2,0 -0.3,0 -0.3,0.1 -0.5,0.2 -0.6,0.5 -0.1,0.2 -0.2,0.5 -0.1,0.8 0.2,0.4 0.6,0.7 1,0.7 z"
   id="path450" />
			<path
   class="st0"
   d="m 82.6,9.2 c 0.1,0 0.2,0 0.3,0 0.3,-0.1 0.5,-0.2 0.6,-0.5 0.1,-0.2 0.1,-0.4 0.1,-0.6 0.1,0 0.1,0.1 0.2,0.1 0,0.1 0,0.2 0,0.3 0.1,0.4 0.5,0.7 1,0.7 0.1,0 0.2,0 0.3,0 C 85.4,9.1 85.6,9 85.7,8.7 85.8,8.5 85.9,8.2 85.8,7.9 85.7,7.6 85.5,7.3 85.2,7.2 c 0,0 0,0 0,0 0.1,0 0.2,0 0.2,0 0.1,0 0.2,-0.1 0.2,-0.1 v 0 c 0.1,0.3 0.3,0.5 0.6,0.7 0,0 0,0 -0.1,0.1 -0.1,0.1 -0.1,0.4 0,0.6 0.1,0.4 0.5,0.7 1,0.7 0.1,0 0.2,0 0.3,0 C 87.9,9 88.3,8.5 88.1,7.9 88.1,7.8 88,7.7 88,7.6 c 0,0 0.1,0 0.1,0 0.1,0 0.2,0 0.3,0 C 88.7,7.5 88.9,7.4 89,7.1 89.1,6.9 89.2,6.6 89.1,6.3 89,5.9 88.6,5.6 88.1,5.6 c -0.1,0 -0.2,0 -0.3,0 -0.2,0.1 -0.3,0.2 -0.4,0.3 0,0 0,0 0,0 0,-0.1 0,-0.2 0,-0.3 0,0 0,-0.1 -0.1,-0.1 0.1,0 0.2,0 0.3,0 0.1,0 0.2,0 0.3,0 0.3,-0.1 0.5,-0.2 0.6,-0.5 0.1,0.1 0.2,0.1 0.4,0.1 0,0.2 -0.1,0.4 0,0.5 0.1,0.4 0.4,0.6 0.8,0.7 0,0.2 -0.1,0.4 0,0.5 0.1,0.4 0.5,0.7 1,0.7 0.1,0 0.2,0 0.3,0 C 91.3,7.4 91.5,7.3 91.6,7 91.7,6.8 91.8,6.5 91.7,6.2 91.6,5.8 91.3,5.6 90.9,5.5 c 0,-0.2 0.1,-0.4 0,-0.5 0,-0.2 -0.1,-0.3 -0.2,-0.4 0.1,0 0.2,0 0.3,0 0.1,0 0.2,0 0.3,0 0,0 0,0 0,0 0,0 0,0 0,0 0.1,0.4 0.5,0.7 1,0.7 0.1,0 0.2,0 0.3,0 C 92.9,5.2 93.1,5.1 93.2,4.8 93.3,4.6 93.4,4.3 93.3,4 93.2,3.6 92.9,3.4 92.5,3.3 92.6,3.2 92.7,3.1 92.7,3 c 0.1,0.1 0.3,0.1 0.5,0.1 0.1,0 0.2,0 0.3,0 0.3,-0.1 0.5,-0.2 0.6,-0.5 0.1,-0.1 0.1,-0.2 0.1,-0.3 0,0 0.1,0.1 0.1,0.1 -0.1,0.1 -0.2,0.2 -0.2,0.3 -0.1,0.2 -0.2,0.5 -0.1,0.8 0.1,0.4 0.5,0.7 1,0.7 0.1,0 0.2,0 0.3,0 0.2,-0.1 0.4,-0.2 0.5,-0.4 0.2,0.2 0.4,0.3 0.7,0.3 0.1,0 0.2,0 0.3,0 0.2,0 0.5,-0.5 0.4,-1.1 -0.1,-0.4 -0.5,-0.7 -1,-0.7 -0.1,0 -0.2,0 -0.3,0 -0.2,0.1 -0.4,0.2 -0.5,0.4 0,0 0,0 0,0 0.1,-0.1 0.2,-0.2 0.2,-0.3 0.1,-0.2 0.2,-0.5 0.1,-0.8 -0.1,-0.4 -0.5,-0.7 -1,-0.7 -0.1,0 -0.2,0 -0.3,0 C 94.1,1 93.9,1.1 93.8,1.4 93.7,1.5 93.7,1.6 93.7,1.7 93.5,1.5 93.2,1.3 92.9,1.3 c -0.1,0 -0.2,0 -0.3,0 C 92.3,1.4 92.1,1.5 92,1.8 91.9,1.7 91.7,1.7 91.5,1.7 c -0.1,0 -0.2,0 -0.3,0 -0.3,0.1 -0.5,0.2 -0.6,0.5 -0.1,0.2 -0.1,0.4 -0.1,0.6 0,0 -0.1,0 -0.1,0 C 90.1,2.9 89.9,3 89.8,3.3 89.7,3.4 89.7,3.6 89.7,3.7 89.5,3.4 89.2,3.1 88.8,3.1 c -0.1,0 -0.2,0 -0.3,0 C 88.2,3.2 88,3.3 87.9,3.6 87.8,3.5 87.6,3.5 87.4,3.5 c -0.1,0 -0.2,0 -0.3,0 -0.5,0.2 -0.9,0.7 -0.7,1.3 0,0 0,0.1 0.1,0.1 -0.1,0 -0.2,0 -0.3,0 -0.1,0 -0.2,0 -0.3,0 -0.2,0 -0.3,0.2 -0.4,0.3 C 85.4,5.1 85.2,5.1 85,5.1 c -0.1,0 -0.2,0 -0.3,0 C 84.4,5.2 84.2,5.3 84.1,5.6 84,5.8 84,6 84,6.1 c -0.1,0 -0.2,0 -0.2,0 C 83.5,6.2 83.3,6.3 83.2,6.6 83.1,6.8 83.1,7 83.1,7.2 82.9,7.1 82.7,7 82.5,7 82.4,7 82.3,7 82.2,7 81.9,7.1 81.7,7.3 81.6,7.5 81.5,7.7 81.4,8 81.5,8.3 c 0.2,0.6 0.6,0.9 1.1,0.9 z m 7.3,-4.9 c 0,0.1 0.1,0.2 0.2,0.2 -0.1,0 -0.1,0 -0.2,0 0,-0.1 0,-0.2 0,-0.2 z"
   id="path452" />
			<path
   class="st0"
   d="m 84.2,11.8 c 0.1,0 0.2,0 0.3,0 0.3,-0.1 0.5,-0.3 0.6,-0.5 0.1,-0.2 0.2,-0.5 0.1,-0.8 -0.1,-0.4 -0.5,-0.7 -1,-0.7 -0.1,0 -0.2,0 -0.3,0 -0.3,0.1 -0.5,0.2 -0.6,0.5 -0.1,0.2 -0.2,0.5 -0.1,0.8 0.1,0.4 0.5,0.7 1,0.7 z"
   id="path454" />
			<path
   class="st0"
   d="m 78.8,13.7 c 0.1,0 0.2,0 0.3,0 0.3,-0.1 0.5,-0.2 0.6,-0.5 0.1,-0.2 0.2,-0.5 0.1,-0.8 -0.1,-0.4 -0.5,-0.7 -1,-0.7 -0.1,0 -0.2,0 -0.3,0 -0.3,0.1 -0.5,0.2 -0.6,0.5 -0.1,0.2 -0.2,0.5 -0.1,0.8 0.1,0.4 0.5,0.7 1,0.7 z"
   id="path456" />
			<path
   class="st0"
   d="m 76.7,18.8 c 0.1,0 0.2,0 0.3,0 0.3,-0.1 0.5,-0.2 0.6,-0.5 0.1,-0.2 0.2,-0.5 0.1,-0.8 -0.1,-0.4 -0.5,-0.7 -1,-0.7 -0.1,0 -0.2,0 -0.3,0 -0.3,0.1 -0.5,0.2 -0.6,0.5 -0.1,0.2 -0.2,0.5 -0.1,0.8 0.1,0.4 0.5,0.7 1,0.7 z"
   id="path458" />
			<path
   class="st0"
   d="m 74.8,21.5 c 0.1,0 0.2,0 0.3,0 0.3,-0.1 0.5,-0.2 0.6,-0.5 0.1,-0.2 0.2,-0.5 0.1,-0.8 -0.1,-0.4 -0.5,-0.7 -1,-0.7 -0.1,0 -0.2,0 -0.3,0 -0.3,0.1 -0.5,0.3 -0.6,0.5 -0.1,0.2 -0.2,0.5 -0.1,0.8 0.1,0.4 0.5,0.7 1,0.7 z"
   id="path460" />
			<path
   class="st0"
   d="m 79.1,16.4 c -0.1,0.2 -0.2,0.5 -0.1,0.8 0.1,0.4 0.5,0.7 1,0.7 0.1,0 0.2,0 0.3,0 0.3,-0.1 0.5,-0.2 0.6,-0.5 0.1,-0.2 0.2,-0.5 0.1,-0.8 -0.1,-0.4 -0.5,-0.7 -1,-0.7 -0.1,0 -0.2,0 -0.3,0 -0.3,0 -0.5,0.2 -0.6,0.5 z"
   id="path462" />
			<path
   class="st0"
   d="m 73.9,32.3 c 0.1,0 0.2,0 0.3,0 0.3,-0.1 0.5,-0.2 0.6,-0.5 0.1,-0.2 0.2,-0.5 0.1,-0.8 -0.1,-0.4 -0.5,-0.7 -1,-0.7 -0.1,0 -0.2,0 -0.3,0 -0.3,0.1 -0.5,0.2 -0.6,0.5 -0.1,0.2 -0.2,0.5 -0.1,0.8 0.2,0.4 0.6,0.7 1,0.7 z"
   id="path464" />
			<path
   class="st0"
   d="m 129.9,30.3 c -0.1,-0.4 -0.5,-0.7 -1,-0.7 -0.1,0 -0.2,0 -0.3,0 -0.3,0.1 -0.5,0.2 -0.6,0.5 -0.1,0.2 -0.2,0.5 -0.1,0.8 0.1,0.4 0.5,0.7 1,0.7 0.1,0 0.2,0 0.3,0 0.3,-0.1 0.5,-0.2 0.6,-0.5 0.1,-0.2 0.1,-0.5 0.1,-0.8 z"
   id="path466" />
			<path
   class="st0"
   d="m 127.4,23.5 c -0.1,0 -0.2,-0.1 -0.3,-0.1 -0.1,0 -0.2,0 -0.3,0.1 -0.5,0.2 -0.8,0.8 -0.6,1.3 0.1,0.4 0.5,0.7 1,0.7 0.1,0 0.2,0 0.3,-0.1 0.3,-0.1 0.5,-0.3 0.6,-0.5 0.1,-0.2 0.1,-0.5 0,-0.8 0,-0.1 -0.1,-0.1 -0.1,-0.2 0.1,0 0.2,0.1 0.3,0.1 0.1,0 0.2,0 0.3,0 0.3,-0.1 0.5,-0.2 0.6,-0.5 0.1,-0.2 0.2,-0.5 0.1,-0.8 -0.1,-0.4 -0.5,-0.7 -1,-0.7 -0.1,0 -0.2,0 -0.3,0 -0.3,0.1 -0.5,0.2 -0.6,0.5 -0.1,0.2 -0.2,0.5 -0.1,0.8 0.1,0 0.1,0.1 0.1,0.2 z"
   id="path468" />
			<path
   class="st0"
   d="m 126.3,18.4 c -0.1,0 -0.2,0 -0.3,0 -0.3,0.1 -0.5,0.2 -0.6,0.5 -0.1,0.2 -0.2,0.5 -0.1,0.8 0.1,0.4 0.5,0.7 1,0.7 0.1,0 0.2,0 0.3,0 0.3,-0.1 0.5,-0.3 0.6,-0.5 0.1,-0.2 0.2,-0.5 0.1,-0.8 -0.2,-0.4 -0.6,-0.7 -1,-0.7 z"
   id="path470" />
			<path
   class="st0"
   d="m 125.9,17.4 c 0.1,0 0.2,0 0.3,0 0.3,-0.1 0.5,-0.3 0.6,-0.5 0.1,-0.2 0.2,-0.5 0.1,-0.8 -0.1,-0.4 -0.5,-0.7 -1,-0.7 -0.1,0 -0.2,0 -0.3,0 -0.5,0.2 -0.9,0.7 -0.7,1.3 0.1,0.4 0.5,0.7 1,0.7 z"
   id="path472" />
			<path
   class="st0"
   d="m 123.6,13.3 c 0.1,0 0.2,0 0.3,0 0.3,-0.1 0.5,-0.2 0.6,-0.5 0.1,-0.2 0.2,-0.5 0.1,-0.8 -0.1,-0.4 -0.5,-0.7 -1,-0.7 -0.1,0 -0.2,0 -0.3,0 -0.3,0.1 -0.5,0.2 -0.6,0.5 -0.1,0.2 -0.2,0.5 -0.1,0.8 0.2,0.4 0.6,0.7 1,0.7 z"
   id="path474" />
			<path
   class="st0"
   d="m 118.6,9.6 c 0.1,0.4 0.5,0.7 1,0.7 0.1,0 0.2,0 0.3,0 0.3,-0.1 0.5,-0.2 0.6,-0.5 0.1,-0.2 0.2,-0.5 0.1,-0.8 -0.1,-0.4 -0.5,-0.7 -1,-0.7 -0.1,0 -0.2,0 -0.3,0 -0.6,0.2 -0.9,0.7 -0.7,1.3 z"
   id="path476" />
			<path
   class="st0"
   d="m 116.7,10.3 c 0.1,0 0.2,0 0.3,0 0.3,-0.1 0.5,-0.2 0.6,-0.5 0.1,-0.2 0.2,-0.5 0.1,-0.8 -0.1,-0.4 -0.5,-0.7 -1,-0.7 -0.1,0 -0.2,0 -0.3,0 -0.3,0.1 -0.5,0.2 -0.6,0.5 -0.1,0.2 -0.2,0.5 -0.1,0.8 0.2,0.4 0.6,0.7 1,0.7 z"
   id="path478" />
			<path
   class="st0"
   d="m 117.3,7 c -0.1,0.2 -0.2,0.5 -0.1,0.8 0.1,0.4 0.5,0.7 1,0.7 0.1,0 0.2,0 0.3,0 0.3,-0.1 0.5,-0.3 0.6,-0.5 0.1,-0.2 0.2,-0.5 0.1,-0.8 -0.1,-0.4 -0.5,-0.7 -1,-0.7 -0.1,0 -0.2,0 -0.3,0 -0.2,0 -0.4,0.2 -0.6,0.5 z"
   id="path480" />
			<path
   class="st0"
   d="m 128.2,27 c 0.1,-0.2 0.2,-0.5 0.1,-0.8 -0.1,-0.4 -0.5,-0.7 -1,-0.7 -0.1,0 -0.2,0 -0.3,0 -0.3,0.1 -0.5,0.2 -0.6,0.5 -0.1,0.2 -0.2,0.5 -0.1,0.8 0.1,0.4 0.5,0.7 1,0.7 0.1,0 0.2,0 0.3,0 0.2,-0.1 0.5,-0.3 0.6,-0.5 z"
   id="path482" />
			<path
   class="st0"
   d="m 75.5,21.9 c -0.1,0 -0.2,0 -0.3,0 -0.3,0.1 -0.5,0.2 -0.6,0.5 -0.1,0.2 -0.2,0.5 -0.1,0.8 0.1,0.4 0.5,0.7 1,0.7 0.1,0 0.2,0 0.3,0 0.3,-0.1 0.5,-0.2 0.6,-0.5 0.1,-0.2 0.2,-0.5 0.1,-0.8 -0.1,-0.4 -0.5,-0.7 -1,-0.7 z"
   id="path484" />
			<path
   class="st0"
   d="m 74.3,26.5 c 0.1,0 0.2,0 0.3,0 0.3,-0.1 0.5,-0.2 0.6,-0.5 0.1,-0.2 0.2,-0.5 0.1,-0.8 -0.1,-0.4 -0.5,-0.7 -1,-0.7 -0.1,0 -0.2,0 -0.3,0 -0.3,0.1 -0.5,0.3 -0.6,0.5 -0.1,0.2 -0.2,0.5 -0.1,0.8 0.1,0.4 0.5,0.7 1,0.7 z"
   id="path486" />
			<path
   class="st0"
   d="m 76.7,37.1 c 0.1,0 0.2,0 0.3,0 0.3,-0.1 0.5,-0.2 0.6,-0.5 0.1,-0.2 0.2,-0.5 0.1,-0.8 -0.1,-0.4 -0.5,-0.7 -1,-0.7 -0.1,0 -0.2,0 -0.3,0 -0.3,0.1 -0.5,0.2 -0.6,0.5 -0.1,0.2 -0.2,0.5 -0.1,0.8 0.1,0.4 0.5,0.7 1,0.7 z"
   id="path488" />
			<path
   class="st0"
   d="m 75.8,38.4 c -0.1,0.2 -0.1,0.5 -0.1,0.7 0.1,0.4 0.5,0.7 1,0.7 0.1,0 0.2,0 0.3,0 0.3,-0.1 0.5,-0.2 0.6,-0.5 0.1,-0.2 0.2,-0.5 0.1,-0.8 -0.1,-0.4 -0.5,-0.7 -1,-0.7 -0.1,0 -0.2,0 -0.3,0 C 76.2,37.9 76,38 75.9,38.2 76,38 76,37.7 76,37.5 c -0.1,-0.4 -0.5,-0.7 -0.9,-0.7 0.2,-0.3 0.4,-0.6 0.3,-1 -0.1,-0.4 -0.5,-0.7 -1,-0.7 -0.1,0 -0.2,0 -0.3,0 -0.3,0.1 -0.5,0.2 -0.6,0.5 -0.1,0.2 -0.2,0.5 -0.1,0.8 0.1,0.4 0.5,0.7 0.9,0.7 -0.1,0.1 -0.1,0.1 -0.2,0.2 -0.1,0.2 -0.2,0.5 -0.1,0.8 0.1,0.4 0.5,0.7 1,0.7 0.1,0 0.2,0 0.3,0 0.2,-0.1 0.3,-0.2 0.5,-0.4 z"
   id="path490" />
			<path
   class="st0"
   d="m 83.5,35.6 c 0.1,-0.2 0.2,-0.5 0.1,-0.8 -0.1,-0.4 -0.5,-0.7 -0.9,-0.7 0.1,-0.1 0.2,-0.2 0.3,-0.3 0.1,-0.2 0.2,-0.5 0.1,-0.8 -0.1,-0.4 -0.5,-0.7 -1,-0.7 -0.1,0 -0.2,0 -0.3,0 -0.3,0.1 -0.5,0.3 -0.6,0.5 -0.2,0.2 -0.2,0.5 -0.1,0.7 0.1,0.4 0.5,0.7 0.9,0.7 -0.1,0.1 -0.2,0.2 -0.3,0.3 -0.1,0.2 -0.2,0.5 -0.1,0.8 0.1,0.4 0.5,0.7 1,0.7 0.1,0 0.2,0 0.3,0 0.2,0 0.4,-0.2 0.6,-0.4 z"
   id="path492" />
			<path
   class="st0"
   d="m 84.4,43.6 c 0.1,0 0.2,0 0.3,0 0.3,-0.1 0.5,-0.2 0.6,-0.5 0.1,-0.2 0.2,-0.5 0.1,-0.8 -0.1,-0.4 -0.5,-0.7 -1,-0.7 -0.1,0 -0.2,0 -0.3,0 -0.3,0.1 -0.5,0.2 -0.6,0.5 -0.1,0.2 -0.2,0.5 -0.1,0.8 0.1,0.4 0.6,0.7 1,0.7 z"
   id="path494" />
			<path
   class="st0"
   d="m 87.3,45.4 c 0.1,0.4 0.5,0.7 1,0.7 0.1,0 0.2,0 0.3,0 0.5,-0.2 0.9,-0.7 0.7,-1.3 -0.1,-0.4 -0.5,-0.7 -1,-0.7 -0.1,0 -0.2,0 -0.3,0 -0.3,0.1 -0.5,0.2 -0.6,0.5 -0.2,0.2 -0.2,0.5 -0.1,0.8 z"
   id="path496" />
			<path
   class="st0"
   d="m 88.7,12.9 c 0.1,0 0.2,0 0.3,0 0.3,-0.1 0.5,-0.2 0.6,-0.5 0.1,-0.2 0.2,-0.5 0.1,-0.8 -0.1,-0.4 -0.5,-0.7 -1,-0.7 -0.1,0 -0.2,0 -0.3,0 -0.3,0.1 -0.5,0.2 -0.6,0.5 -0.1,0.2 -0.2,0.5 -0.1,0.8 0.1,0.4 0.5,0.7 1,0.7 z"
   id="path498" />
			<path
   class="st0"
   d="m 104.2,7.8 c 0.1,0 0.2,0 0.3,0 0.3,-0.1 0.5,-0.2 0.6,-0.5 0.1,-0.2 0.2,-0.5 0.1,-0.8 -0.1,-0.4 -0.5,-0.7 -1,-0.7 -0.1,0 -0.2,0 -0.3,0 -0.3,0.1 -0.5,0.2 -0.6,0.5 -0.1,0.2 -0.2,0.5 -0.1,0.8 0.1,0.4 0.5,0.7 1,0.7 z"
   id="path500" />
			<path
   class="st0"
   d="m 117.2,15.4 c -0.1,0 -0.2,0 -0.3,0 -0.3,0.1 -0.5,0.3 -0.6,0.5 -0.1,0.2 -0.2,0.5 -0.1,0.8 0.1,0.4 0.5,0.7 1,0.7 0.1,0 0.2,0 0.3,0 0.3,-0.1 0.5,-0.2 0.6,-0.5 0.1,-0.2 0.2,-0.5 0.1,-0.8 -0.1,-0.4 -0.5,-0.7 -1,-0.7 z"
   id="path502" />
			<path
   class="st0"
   d="m 112.4,22.7 c -0.1,-0.4 -0.5,-0.7 -1,-0.7 -0.1,0 -0.2,0 -0.3,0 -0.3,0.1 -0.5,0.2 -0.6,0.5 -0.1,0.2 -0.2,0.5 -0.1,0.8 0,0.1 0.1,0.2 0.1,0.3 -0.2,0.1 -0.4,0.2 -0.5,0.4 -0.1,0.2 -0.2,0.5 -0.1,0.8 0.1,0.4 0.5,0.7 1,0.7 0.1,0 0.2,0 0.3,0 0.3,-0.1 0.5,-0.2 0.6,-0.5 0.1,-0.2 0.2,-0.5 0.1,-0.8 0,-0.1 -0.1,-0.2 -0.1,-0.3 0.2,-0.1 0.4,-0.2 0.5,-0.4 0.2,-0.3 0.2,-0.6 0.1,-0.8 z"
   id="path504" />
			<path
   class="st0"
   d="m 117.3,22.5 c -0.1,0 -0.2,0 -0.3,0 -0.5,0.2 -0.9,0.7 -0.7,1.3 0.1,0.4 0.5,0.7 1,0.7 0.1,0 0.2,0 0.3,0 0.3,-0.1 0.5,-0.2 0.6,-0.5 0.1,-0.2 0.2,-0.5 0.1,-0.8 -0.2,-0.4 -0.6,-0.7 -1,-0.7 z"
   id="path506" />
			<path
   class="st0"
   d="m 119.6,30 c 0.1,0 0.2,0 0.3,0 0.3,-0.1 0.5,-0.2 0.6,-0.5 0.1,-0.2 0.2,-0.5 0.1,-0.8 -0.1,-0.4 -0.5,-0.7 -1,-0.7 -0.1,0 -0.2,0 -0.3,0 -0.5,0.2 -0.9,0.7 -0.7,1.3 0.1,0.4 0.5,0.7 1,0.7 z"
   id="path508" />
			<path
   class="st0"
   d="m 121.9,24.9 c 0.5,-0.2 0.9,-0.7 0.7,-1.3 -0.1,-0.4 -0.5,-0.7 -1,-0.7 -0.1,0 -0.2,0 -0.3,0 -0.3,0.1 -0.5,0.2 -0.6,0.5 -0.1,0.2 -0.2,0.5 -0.1,0.8 0.1,0.4 0.5,0.7 1,0.7 0.1,0 0.2,0 0.3,0 z"
   id="path510" />
			<path
   class="st0"
   d="m 120.6,38.8 c 0.1,0 0.2,0 0.3,0 0.3,-0.1 0.5,-0.2 0.6,-0.5 0.1,-0.2 0.2,-0.5 0.1,-0.8 -0.1,-0.4 -0.5,-0.7 -1,-0.7 -0.1,0 -0.2,0 -0.3,0 -0.5,0.2 -0.9,0.7 -0.7,1.3 0.1,0.4 0.5,0.7 1,0.7 z"
   id="path512" />
			<path
   class="st0"
   d="m 118.2,39.7 c 0.1,-0.2 0.2,-0.5 0.1,-0.8 -0.1,-0.3 -0.3,-0.5 -0.5,-0.6 0.2,-0.1 0.3,-0.2 0.4,-0.4 0.1,-0.2 0.2,-0.5 0.1,-0.8 -0.1,-0.4 -0.5,-0.7 -1,-0.7 -0.1,0 -0.2,0 -0.3,0 -0.5,0.2 -0.9,0.7 -0.7,1.3 0.1,0.3 0.3,0.5 0.5,0.6 -0.2,0.1 -0.3,0.2 -0.4,0.4 -0.1,0.2 -0.2,0.5 -0.1,0.8 0.1,0.4 0.5,0.7 1,0.7 0.1,0 0.2,0 0.3,0 0.2,-0.1 0.4,-0.2 0.6,-0.5 z"
   id="path514" />
			<path
   class="st0"
   d="m 106.9,50.3 c 0.1,0 0.2,0 0.3,0 0.3,-0.1 0.5,-0.2 0.6,-0.5 0.1,-0.2 0.2,-0.5 0.1,-0.8 -0.1,-0.4 -0.5,-0.7 -1,-0.7 -0.1,0 -0.2,0 -0.3,0 -0.5,0.2 -0.9,0.7 -0.7,1.3 0.2,0.4 0.6,0.7 1,0.7 z"
   id="path516" />
			<path
   class="st0"
   d="m 105.8,48.6 c -0.1,-0.4 -0.5,-0.7 -1,-0.7 -0.1,0 -0.2,0 -0.3,0 -0.3,0.1 -0.5,0.2 -0.6,0.5 -0.1,0.2 -0.2,0.5 -0.1,0.8 0,0.2 0.1,0.3 0.3,0.4 -0.5,0 -0.9,0.5 -0.9,1 0,0.6 0.5,1 1,1 0.5,0 1,-0.5 1,-1 0,-0.3 -0.1,-0.5 -0.3,-0.7 0.1,0 0.1,0 0.2,0 0.5,-0.2 0.8,-0.7 0.7,-1.3 z"
   id="path518" />
			<path
   class="st0"
   d="m 113.6,48.4 c 0.1,0 0.2,0 0.3,0 0.3,-0.1 0.5,-0.2 0.6,-0.5 0.1,-0.2 0.2,-0.5 0.1,-0.8 -0.1,-0.4 -0.5,-0.7 -1,-0.7 -0.1,0 -0.2,0 -0.3,0 -0.3,0.1 -0.5,0.2 -0.6,0.5 -0.1,0.2 -0.2,0.5 -0.1,0.8 0.1,0.4 0.5,0.7 1,0.7 z"
   id="path520" />
			<path
   class="st0"
   d="m 82.1,38.6 c -0.1,0 -0.2,0 -0.3,0 -0.3,0.1 -0.5,0.2 -0.6,0.5 -0.2,0.3 -0.2,0.6 -0.1,0.9 0.1,0.4 0.5,0.7 1,0.7 0.1,0 0.2,0 0.3,0 0.3,-0.1 0.5,-0.2 0.6,-0.5 0.1,-0.2 0.2,-0.5 0.1,-0.8 -0.2,-0.5 -0.6,-0.8 -1,-0.8 z"
   id="path522" />
			<path
   class="st0"
   d="m 80.4,31.1 c 0.1,-0.2 0.2,-0.5 0.1,-0.8 -0.1,-0.4 -0.5,-0.7 -1,-0.7 -0.1,0 -0.2,0 -0.3,0 -0.3,0.1 -0.5,0.2 -0.6,0.5 -0.1,0.2 -0.1,0.4 -0.1,0.5 -0.1,0 -0.2,0 -0.2,0 -0.1,0 -0.2,0 -0.3,0 -0.3,0.1 -0.5,0.2 -0.6,0.5 -0.1,0.2 -0.2,0.5 -0.1,0.8 0.1,0.4 0.5,0.7 1,0.7 0.1,0 0.2,0 0.3,0 0.3,-0.1 0.5,-0.2 0.6,-0.5 0.1,-0.2 0.1,-0.4 0.1,-0.5 0.1,0 0.2,0 0.2,0 0.1,0 0.2,0 0.3,0 0.2,-0.1 0.4,-0.2 0.6,-0.5 z"
   id="path524" />
			<path
   class="st0"
   d="m 77.4,28.3 c 0.1,0 0.2,0 0.3,0 0.3,-0.1 0.5,-0.3 0.6,-0.5 0.1,-0.2 0.2,-0.5 0.1,-0.8 -0.1,-0.4 -0.5,-0.7 -1,-0.7 -0.1,0 -0.2,0 -0.3,0 -0.3,0.1 -0.5,0.2 -0.6,0.5 -0.1,0.2 -0.2,0.5 -0.1,0.8 0.2,0.4 0.6,0.7 1,0.7 z"
   id="path526" />
			<path
   class="st0"
   d="m 78.8,22.9 c 0.1,0 0.2,0 0.3,0 0.3,-0.1 0.5,-0.2 0.6,-0.5 0.1,-0.2 0.2,-0.5 0.1,-0.8 -0.1,-0.4 -0.5,-0.7 -1,-0.7 -0.1,0 -0.2,0 -0.3,0 -0.3,0.1 -0.5,0.2 -0.6,0.5 -0.1,0.2 -0.2,0.5 -0.1,0.8 0.1,0.4 0.5,0.7 1,0.7 z"
   id="path528" />
			<path
   class="st0"
   d="m 95,12.8 c 0.3,-0.1 0.5,-0.2 0.6,-0.5 0.1,-0.2 0.2,-0.5 0.1,-0.8 -0.1,-0.4 -0.5,-0.7 -1,-0.7 -0.1,0 -0.2,0 -0.3,0 -0.1,0 -0.1,0.1 -0.2,0.1 0,-0.1 0,-0.3 0,-0.4 -0.1,-0.4 -0.5,-0.7 -1,-0.7 -0.1,0 -0.2,0 -0.3,0 -0.3,0.1 -0.5,0.2 -0.6,0.5 -0.1,0.2 -0.2,0.5 -0.1,0.8 0.1,0.4 0.5,0.7 1,0.7 0.1,0 0.2,0 0.3,0 0.1,0 0.1,-0.1 0.2,-0.1 0,0.1 0,0.3 0,0.4 0.1,0.4 0.5,0.7 1,0.7 0.1,0.1 0.2,0 0.3,0 z"
   id="path530" />
			<path
   class="st0"
   d="m 86,28.8 c 0.1,-0.2 0.2,-0.5 0.1,-0.8 -0.1,-0.4 -0.5,-0.7 -1,-0.7 -0.1,0 -0.2,0 -0.3,0 -0.5,0.2 -0.9,0.7 -0.7,1.3 0.1,0.4 0.5,0.7 1,0.7 0.1,0 0.2,0 0.3,0 0.3,-0.1 0.5,-0.2 0.6,-0.5 z"
   id="path532" />
			<path
   class="st0"
   d="m 111.5,40.7 c 0.3,-0.1 0.5,-0.2 0.6,-0.5 0.1,-0.2 0.2,-0.5 0.1,-0.8 -0.1,-0.4 -0.5,-0.7 -1,-0.7 -0.1,0 -0.2,0 -0.3,0 -0.3,0.1 -0.5,0.2 -0.6,0.5 -0.1,0.2 -0.2,0.5 -0.1,0.8 0.1,0.4 0.5,0.7 1,0.7 0.1,0 0.2,0 0.3,0 z"
   id="path534" />
			<path
   class="st0"
   d="m 108.6,38.7 c -0.1,0 -0.2,0 -0.3,0 -0.3,0.1 -0.5,0.2 -0.6,0.5 -0.1,0.2 -0.2,0.5 -0.1,0.8 0.1,0.4 0.5,0.7 1,0.7 0.1,0 0.2,0 0.3,0 0.3,-0.1 0.5,-0.2 0.6,-0.5 0.1,-0.2 0.2,-0.5 0.1,-0.8 -0.1,-0.4 -0.5,-0.7 -1,-0.7 z"
   id="path536" />
			<path
   class="st0"
   d="m 113.3,33.7 c 0.1,0 0.2,0 0.3,0 0.3,-0.1 0.5,-0.2 0.6,-0.5 0.1,-0.2 0.2,-0.5 0.1,-0.8 -0.1,-0.4 -0.5,-0.7 -1,-0.7 -0.1,0 -0.2,0 -0.3,0 -0.3,0.1 -0.5,0.2 -0.6,0.5 -0.1,0.2 -0.2,0.5 -0.1,0.8 0.1,0.4 0.5,0.7 1,0.7 z"
   id="path538" />
			<path
   class="st0"
   d="m 103.6,45.1 c 0.1,0 0.2,0 0.3,0 0.3,-0.1 0.5,-0.2 0.6,-0.5 0.1,-0.2 0.2,-0.5 0.1,-0.8 -0.1,-0.4 -0.5,-0.7 -1,-0.7 -0.1,0 -0.2,0 -0.3,0 -0.3,0.1 -0.5,0.2 -0.6,0.5 -0.1,0.2 -0.2,0.5 -0.1,0.8 0.2,0.4 0.6,0.7 1,0.7 z"
   id="path540" />
			<path
   class="st0"
   d="m 80.9,26 c 0.1,-0.2 0.2,-0.5 0.1,-0.8 -0.1,-0.4 -0.5,-0.7 -1,-0.7 -0.1,0 -0.2,0 -0.3,0 -0.3,0.1 -0.5,0.2 -0.6,0.5 -0.1,0.2 -0.2,0.5 -0.1,0.8 0.1,0.4 0.5,0.7 1,0.7 0.1,0 0.2,0 0.3,0 0.2,-0.1 0.5,-0.3 0.6,-0.5 z"
   id="path542" />
			<path
   class="st0"
   d="m 86.5,15.2 c -0.1,-0.4 -0.5,-0.7 -1,-0.7 -0.1,0 -0.2,0 -0.3,0 -0.3,0.1 -0.5,0.2 -0.6,0.5 -0.1,0.2 -0.2,0.5 -0.1,0.8 0.1,0.4 0.5,0.7 1,0.7 0.1,0 0.2,0 0.3,0 0.3,-0.1 0.5,-0.2 0.6,-0.5 0.1,-0.3 0.2,-0.6 0.1,-0.8 z"
   id="path544" />
			<path
   class="st0"
   d="m 110.4,13.2 c -0.1,0.2 -0.2,0.5 -0.1,0.8 0.1,0.3 0.4,0.6 0.7,0.7 0,0 0,0 -0.1,0.1 -0.1,0.2 -0.2,0.5 -0.1,0.8 0.1,0.4 0.5,0.7 1,0.7 0.1,0 0.2,0 0.3,0 0.3,-0.1 0.5,-0.2 0.6,-0.5 0.1,-0.2 0.2,-0.5 0.1,-0.8 -0.1,-0.3 -0.4,-0.6 -0.7,-0.7 0,0 0,0 0.1,-0.1 0.1,-0.2 0.2,-0.5 0.1,-0.8 -0.1,-0.4 -0.5,-0.7 -1,-0.7 -0.1,0 -0.2,0 -0.3,0 -0.3,0.1 -0.5,0.3 -0.6,0.5 z"
   id="path546" />
			<path
   class="st0"
   d="m 106.5,12.8 c 0.1,-0.2 0.2,-0.5 0.1,-0.8 -0.1,-0.4 -0.5,-0.7 -1,-0.7 -0.1,0 -0.2,0 -0.3,0 -0.3,0.1 -0.5,0.2 -0.6,0.5 -0.1,0.2 -0.2,0.5 -0.1,0.8 0.1,0.4 0.5,0.7 1,0.7 0.1,0 0.2,0 0.3,0 0.2,-0.1 0.4,-0.3 0.6,-0.5 z"
   id="path548" />
			<path
   class="st0"
   d="m 94.6,44.4 c -0.1,-0.4 -0.5,-0.7 -1,-0.7 -0.1,0 -0.2,0 -0.3,0 -0.1,0 -0.2,0.1 -0.2,0.1 0,-0.1 0,-0.1 0,-0.2 -0.1,-0.4 -0.5,-0.7 -1,-0.7 -0.1,0 -0.2,0 -0.3,0 -0.3,0.1 -0.5,0.2 -0.6,0.5 -0.2,0.3 -0.2,0.6 -0.1,0.9 0.1,0.4 0.5,0.7 1,0.7 0.1,0 0.2,0 0.3,0 0.1,0 0.2,-0.1 0.2,-0.1 0,0.1 0,0.1 0,0.2 0.1,0.4 0.5,0.7 1,0.7 0.1,0 0.2,0 0.3,0 0.5,-0.2 0.8,-0.8 0.7,-1.4 z"
   id="path550" />
			<path
   class="st0"
   d="m 98.4,46.8 c -0.1,0 -0.2,0 -0.3,0 -0.3,0.1 -0.5,0.2 -0.6,0.5 -0.1,0.2 -0.2,0.5 -0.1,0.8 0.1,0.4 0.5,0.7 1,0.7 0.1,0 0.2,0 0.3,0 0.3,-0.1 0.5,-0.2 0.6,-0.5 0.1,-0.2 0.2,-0.5 0.1,-0.8 -0.2,-0.4 -0.6,-0.7 -1,-0.7 z"
   id="path552" />
			<path
   class="st0"
   d="m 97.9,41.3 c -0.1,0 -0.2,0 -0.3,0 -0.3,0.1 -0.5,0.3 -0.6,0.5 -0.1,0.2 -0.2,0.5 -0.1,0.8 0.1,0.4 0.5,0.7 1,0.7 0.1,0 0.2,0 0.3,0 0.3,-0.1 0.5,-0.2 0.6,-0.5 0.1,-0.2 0.2,-0.5 0.1,-0.8 -0.2,-0.4 -0.6,-0.7 -1,-0.7 z"
   id="path554" />
			<path
   class="st0"
   d="m 95.7,37.8 c 0.1,0 0.2,0 0.3,0 0.3,-0.1 0.5,-0.2 0.6,-0.5 0.1,-0.2 0.2,-0.5 0.1,-0.8 -0.1,-0.4 -0.5,-0.7 -1,-0.7 -0.1,0 -0.2,0 -0.3,0 -0.3,0.1 -0.5,0.2 -0.6,0.5 -0.1,0.2 -0.2,0.5 -0.1,0.8 0.1,0.4 0.5,0.7 1,0.7 z"
   id="path556" />
			<path
   class="st0"
   d="m 108.3,34.2 c -0.1,0.2 -0.2,0.5 -0.1,0.8 0.1,0.4 0.5,0.7 1,0.7 0.1,0 0.2,0 0.3,0 0.3,-0.1 0.5,-0.3 0.6,-0.5 0.1,-0.2 0.2,-0.5 0.1,-0.8 -0.1,-0.4 -0.5,-0.7 -1,-0.7 -0.1,0 -0.2,0 -0.3,0 -0.3,0.1 -0.5,0.2 -0.6,0.5 z"
   id="path558" />
			<path
   class="st0"
   d="m 115.4,27.9 c -0.1,0 -0.2,0 -0.3,0 -0.3,0.1 -0.5,0.2 -0.6,0.5 -0.1,0.2 -0.2,0.5 -0.1,0.8 0.1,0.4 0.5,0.7 1,0.7 0.1,0 0.2,0 0.3,0 0.3,-0.1 0.5,-0.2 0.6,-0.5 0.1,-0.2 0.2,-0.5 0.1,-0.8 -0.2,-0.4 -0.6,-0.7 -1,-0.7 z"
   id="path560" />
			<path
   class="st0"
   d="m 87.7,25.2 c 0.1,0.4 0.5,0.7 1,0.7 0.1,0 0.2,0 0.3,0 0.3,-0.1 0.5,-0.2 0.6,-0.5 0.1,-0.2 0.2,-0.5 0.1,-0.8 -0.1,-0.4 -0.5,-0.7 -1,-0.7 -0.1,0 -0.2,0 -0.3,0 -0.3,0.1 -0.5,0.2 -0.6,0.5 -0.1,0.3 -0.2,0.6 -0.1,0.8 z"
   id="path562" />
			<path
   class="st0"
   d="m 92.2,29.3 c -0.1,0 -0.2,0 -0.3,0 -0.3,0.1 -0.5,0.2 -0.6,0.5 -0.1,0.2 -0.2,0.5 -0.1,0.8 0.1,0.4 0.5,0.7 1,0.7 0.1,0 0.2,0 0.3,0 0.5,-0.2 0.9,-0.7 0.7,-1.3 -0.1,-0.4 -0.5,-0.7 -1,-0.7 z"
   id="path564" />
			<path
   class="st0"
   d="m 119.8,35.3 c 0.2,0 0.4,0 0.5,-0.1 0.2,-0.1 0.4,-0.4 0.5,-0.6 0.1,-0.3 0,-0.5 -0.1,-0.8 -0.2,-0.3 -0.5,-0.5 -0.9,-0.5 -0.2,0 -0.4,0 -0.5,0.1 -0.5,0.3 -0.7,0.9 -0.4,1.4 0.1,0.3 0.5,0.5 0.9,0.5 z"
   id="path566" />
			<path
   class="st0"
   d="m 87.3,35.3 c -0.1,0.3 0,0.5 0.1,0.8 0.2,0.3 0.5,0.5 0.9,0.5 0.2,0 0.4,0 0.5,-0.1 0,0 0,0 0,0 -0.1,0.1 -0.1,0.1 -0.2,0.2 -0.1,0.2 -0.2,0.5 -0.1,0.8 0.1,0.4 0.5,0.7 1,0.7 0.1,0 0.2,0 0.3,0 0.3,-0.1 0.5,-0.2 0.6,-0.5 0.1,-0.2 0.2,-0.5 0.1,-0.8 -0.1,-0.4 -0.5,-0.7 -1,-0.7 -0.1,0 -0.2,0 -0.3,0 -0.1,0 -0.2,0.1 -0.3,0.1 0.1,-0.1 0.3,-0.3 0.3,-0.5 0.1,-0.3 0,-0.5 -0.1,-0.8 -0.2,-0.3 -0.5,-0.5 -0.9,-0.5 -0.2,0 -0.4,0 -0.5,0.1 -0.2,0.2 -0.4,0.4 -0.4,0.7 z"
   id="path568" />
			<path
   class="st0"
   d="m 115.4,45.4 c 0.2,0 0.4,0 0.5,-0.1 0.2,-0.1 0.3,-0.2 0.4,-0.4 0.1,0.1 0.3,0.1 0.5,0.1 0.1,0 0.2,0 0.3,0 0.3,-0.1 0.5,-0.2 0.6,-0.5 0.1,-0.2 0.2,-0.5 0.1,-0.8 -0.1,-0.4 -0.5,-0.7 -1,-0.7 -0.1,0 -0.2,0 -0.3,0 -0.3,0.1 -0.5,0.2 -0.6,0.5 -0.1,-0.1 -0.3,-0.1 -0.5,-0.1 -0.2,0 -0.4,0 -0.5,0.1 -0.5,0.3 -0.7,0.9 -0.4,1.4 0.2,0.3 0.5,0.5 0.9,0.5 z"
   id="path570" />
			<path
   class="st0"
   d="m 111.2,46 c 0.1,-0.3 0,-0.5 -0.1,-0.8 -0.2,-0.3 -0.5,-0.5 -0.9,-0.5 -0.2,0 -0.4,0 -0.5,0.1 -0.2,0.1 -0.4,0.4 -0.5,0.6 -0.1,0.2 0,0.4 0.1,0.6 -0.1,0 -0.2,0 -0.3,0 -0.3,0.1 -0.5,0.2 -0.6,0.5 -0.1,0.2 -0.2,0.5 -0.1,0.8 0.1,0.4 0.5,0.7 1,0.7 0.1,0 0.2,0 0.3,0 0.3,-0.1 0.5,-0.2 0.6,-0.5 0.1,-0.2 0.2,-0.5 0.1,-0.8 0,0 0,-0.1 0,-0.1 0.2,0 0.3,0 0.5,-0.1 0.2,0 0.3,-0.2 0.4,-0.5 z"
   id="path572" />
			<path
   class="st0"
   d="m 126.8,32.7 c 0.1,0 0.2,0 0.3,-0.1 0.3,-0.1 0.5,-0.3 0.6,-0.5 0.1,-0.2 0.1,-0.5 0,-0.8 -0.1,-0.4 -0.5,-0.7 -1,-0.7 -0.1,0 -0.2,0 -0.3,0.1 -0.5,0.2 -0.8,0.8 -0.6,1.3 0.1,0.4 0.5,0.7 1,0.7 z"
   id="path574" />
			<path
   class="st0"
   d="m 86.1,22.5 c -0.1,-0.4 -0.5,-0.7 -1,-0.7 -0.1,0 -0.2,0 -0.3,0.1 -0.5,0.2 -0.8,0.8 -0.6,1.3 0.1,0.4 0.5,0.7 1,0.7 0.1,0 0.2,0 0.3,-0.1 0.5,-0.1 0.8,-0.7 0.6,-1.3 z"
   id="path576" />
			<path
   class="st0"
   d="m 91.9,18.7 c -0.1,0 -0.2,0 -0.3,0.1 -0.5,0.2 -0.8,0.8 -0.6,1.3 0.1,0.4 0.5,0.7 1,0.7 0.1,0 0.2,0 0.3,-0.1 0.3,-0.1 0.5,-0.3 0.6,-0.5 0.1,-0.2 0.1,-0.5 0,-0.8 -0.2,-0.4 -0.6,-0.7 -1,-0.7 z"
   id="path578" />
			<path
   class="st0"
   d="m 100.3,15.9 c 0.1,-0.2 0.1,-0.5 0,-0.8 -0.1,-0.4 -0.5,-0.7 -1,-0.7 -0.1,0 -0.2,0 -0.3,0.1 -0.5,0.2 -0.8,0.8 -0.6,1.3 0.1,0.4 0.5,0.7 1,0.7 0.1,0 0.2,0 0.3,-0.1 0.3,-0.1 0.5,-0.3 0.6,-0.5 z"
   id="path580" />
			<path
   class="st0"
   d="m 78.5,43.8 c 0.1,-0.2 0.2,-0.5 0.1,-0.8 -0.1,-0.4 -0.5,-0.7 -1,-0.7 -0.1,0 -0.2,0 -0.3,0 -0.5,0.2 -0.9,0.7 -0.7,1.3 0.1,0.4 0.5,0.7 1,0.7 0.1,0 0.2,0 0.3,0 0.2,-0.1 0.5,-0.3 0.6,-0.5 z"
   id="path582" />
			<path
   class="st0"
   d="m 78.8,40.5 c -0.1,0 -0.2,0 -0.3,0 -0.3,0.1 -0.5,0.2 -0.6,0.5 -0.1,0.2 -0.2,0.5 -0.1,0.8 0.1,0.4 0.5,0.7 1,0.7 0.1,0 0.2,0 0.3,0 0.5,-0.2 0.9,-0.7 0.7,-1.3 -0.1,-0.4 -0.5,-0.7 -1,-0.7 z"
   id="path584" />
			<path
   class="st0"
   d="M 77,40.7 C 76.9,40.3 76.5,40 76,40 c -0.1,0 -0.2,0 -0.3,0 -0.3,0.1 -0.5,0.2 -0.6,0.5 -0.1,0.2 -0.1,0.5 0,0.8 0.1,0.4 0.5,0.7 1,0.7 0.1,0 0.2,0 0.3,0 0.5,-0.2 0.8,-0.8 0.6,-1.3 z"
   id="path586" />
			<path
   class="st0"
   d="m 96,55.1 c -0.1,0 -0.2,0 -0.3,0 -0.2,0.1 -0.3,0.2 -0.5,0.3 0,0 0,-0.1 0,-0.1 0,-0.1 -0.1,-0.2 -0.1,-0.2 0,0 0.1,0 0.1,0 0.1,0 0.2,0 0.3,0 0.3,-0.1 0.5,-0.2 0.6,-0.5 0.1,-0.2 0.2,-0.5 0.1,-0.8 -0.1,-0.2 -0.2,-0.4 -0.3,-0.5 0.1,-0.2 0.2,-0.4 0.2,-0.6 0,-0.6 -0.5,-1 -1,-1 -0.5,0 -1,0.5 -1,1 0,0.3 0.1,0.6 0.4,0.8 -0.2,0.3 -0.3,0.6 -0.2,0.9 0,0.1 0.1,0.2 0.1,0.2 0,0 -0.1,0 -0.1,0 -0.1,0 -0.2,0 -0.3,0 -0.2,0 -0.3,0.1 -0.4,0.2 -0.1,-0.3 -0.3,-0.6 -0.6,-0.7 0.2,-0.2 0.3,-0.4 0.3,-0.7 0,-0.6 -0.5,-1 -1,-1 -0.5,0 -1,0.5 -1,1 0,0.4 0.3,0.8 0.6,0.9 -0.2,0.2 -0.3,0.4 -0.3,0.7 0,0.6 0.5,1 1,1 0.3,0 0.5,-0.1 0.7,-0.3 0,0 0,0 0,0 0.1,0.4 0.5,0.7 1,0.7 0.1,0 0.2,0 0.3,0 0.2,-0.1 0.3,-0.2 0.5,-0.3 0,0 0,0.1 0,0.1 0.1,0.4 0.5,0.7 1,0.7 0.1,0 0.2,0 0.3,0 0.3,-0.1 0.5,-0.2 0.6,-0.5 0.1,-0.2 0.2,-0.5 0.1,-0.8 -0.3,-0.2 -0.7,-0.5 -1.1,-0.5 z"
   id="path588" />
			<path
   class="st0"
   d="m 98.8,55.4 c 0.1,-0.2 0.1,-0.5 0,-0.7 -0.2,-0.4 -0.5,-0.6 -0.9,-0.6 -0.1,0 -0.3,0 -0.4,0.1 -0.3,0.1 -0.4,0.3 -0.5,0.6 -0.1,0.3 -0.1,0.5 0,0.8 0.1,0.3 0.4,0.5 0.6,0.6 -0.1,0.2 -0.1,0.5 0,0.7 0.2,0.4 0.5,0.6 0.9,0.6 0.1,0 0.3,0 0.4,-0.1 0.3,-0.1 0.4,-0.3 0.5,-0.6 0.1,-0.3 0.1,-0.5 0,-0.8 0,-0.3 -0.3,-0.5 -0.6,-0.6 z"
   id="path590" />
		</g>
		<path
   class="st0"
   d="m 97.9,55.8 c -0.3,0 -0.5,-0.2 -0.6,-0.4 -0.1,-0.2 -0.1,-0.3 0,-0.5 0.1,-0.2 0.2,-0.3 0.3,-0.4 0.1,0 0.2,-0.1 0.3,-0.1 0.3,0 0.5,0.2 0.6,0.4 0.1,0.3 0,0.7 -0.3,0.9 -0.2,0.1 -0.3,0.1 -0.3,0.1 z"
   id="path594" />
	</g>
	<g
   id="g624"
   transform="translate(-58.896382,-0.16842985)">
		<g
   id="g622">
			<g
   id="g620">
				<g
   id="g618">
					
					
					
					
					<g
   id="g608"
   transform="translate(-25.577159,2.6201535)">
						<path
   class="st0"
   d="m 243.19789,28.314587 c 0,1.4 -1,2.4 -2.4,2.4 -1.4,0 -2.4,-1 -2.4,-2.4 0,-1.4 1.1,-2.4 2.4,-2.4 1.3,-0.1 2.4,1 2.4,2.4 z m -0.4,0 c 0,-1.2 -0.8,-2 -2,-2 -1.2,0 -2,0.9 -2,2 0,1.2 0.8,2 2,2 1.1,0 2,-0.9 2,-2 z m -3.3,0 c 0.6,0.2 1.1,0.6 1.2,1.2 0,0.1 0.1,0.1 0.1,0 0.2,-0.6 0.6,-1.1 1.2,-1.2 0.1,0 0.1,-0.1 0,-0.1 -0.6,-0.2 -1.1,-0.6 -1.2,-1.2 0,-0.1 -0.1,-0.1 -0.1,0 -0.2,0.6 -0.6,1.1 -1.2,1.2 -0.1,0 -0.1,0.1 0,0.1 z"
   id="path606" />
					</g>
					
					
					
					
				<g
   aria-label="fam trees"
   id="text1200"
   style="font-style:normal;font-variant:normal;font-weight:bold;font-stretch:normal;font-size:40px;line-height:0.65;font-family:'Trebuchet MS';-inkscape-font-specification:'Trebuchet MS Bold';fill:#000000;fill-opacity:1;stroke:none"
   transform="translate(-8)"><path
     d="m 142.20801,5.7077274 q -1.60156,-0.5273437 -2.46094,-0.5273437 -1.38672,0 -2.36328,1.1914062 -0.95703,1.1914063 -0.95703,2.9296875 0,0.2539063 0.0195,0.5078125 h 4.33594 v 4.0234371 h -4.25782 V 30.727259 H 131.6416 V 13.832727 h -3.04687 V 9.8092899 h 3.0664 q 0.15625,-3.8476562 2.26563,-6.2109375 2.1289,-2.3632812 5.48828,-2.3632812 1.73828,0 4.23828,0.7617187 z"
     style="font-size:40px;fill:#e41c1c;fill-opacity:1"
     id="path1639" /><path
     d="m 156.97363,28.637415 q -0.66406,1.09375 -2.32422,1.796875 -1.64062,0.683594 -3.4375,0.683594 -3.3789,0 -5.3125,-1.679688 -1.93359,-1.699219 -1.93359,-4.804687 0,-3.632813 2.71484,-5.683594 2.73438,-2.050781 7.75391,-2.050781 0.85938,0 2.03125,0.292968 0,-3.691406 -4.66797,-3.691406 -2.7539,0 -4.60937,0.917969 l -1.05469,-3.789063 q 2.51953,-1.2109371 5.99609,-1.2109371 4.78516,0 7.01172,2.1875001 2.22656,2.167969 2.22656,8.242187 v 4.472657 q 0,4.179687 1.67969,5.253906 -0.60547,1.054687 -1.34765,1.289062 -0.74219,0.253907 -1.69922,0.253907 -1.05469,0 -1.89453,-0.78125 -0.83985,-0.78125 -1.13282,-1.699219 z m -0.46875,-7.753906 q -1.25,-0.253907 -1.875,-0.253907 -5.78125,0 -5.78125,3.789063 0,2.8125 3.26172,2.8125 4.39453,0 4.39453,-4.394531 z"
     style="font-size:40px;fill:#e41c1c;fill-opacity:1"
     id="path1641" /><path
     d="M 190.86035,30.727259 V 17.62179 q 0,-4.121094 -3.6914,-4.121094 -1.09375,0 -2.10938,0.644531 -1.01562,0.644532 -1.42578,1.484375 v 15.097657 h -4.88281 V 16.860071 q 0,-1.542969 -0.95703,-2.441406 -0.95704,-0.917969 -2.69532,-0.917969 -0.91797,0 -2.01172,0.683594 -1.07421,0.683594 -1.5625,1.503906 V 30.727259 H 166.6416 V 9.8092899 h 3.35938 l 0.99609,1.8359371 q 2.03125,-2.2265621 5.25391,-2.2265621 4.16015,0 6.26953,2.2656251 0.91797,-1.035156 2.55859,-1.640625 1.64063,-0.6250001 3.28125,-0.6250001 3.4961,0 5.42969,2.0117191 1.95312,1.992187 1.95312,5.488281 v 13.808594 z"
     style="font-size:40px;fill:#e41c1c;fill-opacity:1"
     id="path1643" /><path
     d="m 131.29004,39.73507 h -2.42188 v -3.925781 h 2.42188 v -4.257813 l 4.88281,-1.796875 v 6.054688 h 5.74219 v 3.925781 h -5.74219 v 9.160156 q 0,2.246094 0.70313,3.183594 0.70312,0.917969 2.46093,0.917969 1.75782,0 3.28125,-0.957031 v 4.492187 q -1.69921,0.585938 -4.84375,0.585938 -3.125,0 -4.80468,-1.757813 -1.67969,-1.777344 -1.67969,-5.039062 z"
     style="font-size:40px;fill:#e41c1c;fill-opacity:1"
     id="path1645" /><path
     d="m 158.49707,40.36007 q -1.30859,-0.859375 -2.87109,-0.859375 -1.69922,0 -3.02735,1.542969 -1.30859,1.542969 -1.30859,3.769531 v 11.914063 h -4.88281 V 35.809289 h 4.88281 v 1.914062 q 2.05078,-2.304687 5.44922,-2.304687 2.5,0 3.82812,0.761719 z"
     style="font-size:40px;fill:#e41c1c;fill-opacity:1"
     id="path1647" /><path
     d="m 182.16895,47.762414 h -14.94141 q 0.13672,2.5 1.71875,3.886719 1.58203,1.386718 4.25781,1.386718 3.33985,0 5.07813,-1.738281 l 1.89453,3.730469 q -2.57813,2.089844 -7.69531,2.089844 -4.78516,0 -7.57813,-2.792969 -2.77344,-2.8125 -2.77344,-7.832031 0,-4.941407 3.04688,-8.007813 3.0664,-3.066406 7.34375,-3.066406 4.55078,0 7.30469,2.714844 2.7539,2.714843 2.7539,6.914062 0,0.898438 -0.41015,2.714844 z m -14.76563,-3.671875 h 10.27344 q -0.50781,-4.589844 -5.07813,-4.589844 -4.17968,0 -5.19531,4.589844 z"
     style="font-size:40px;fill:#e41c1c;fill-opacity:1"
     id="path1649" /><path
     d="m 205.15723,47.762414 h -14.94141 q 0.13672,2.5 1.71875,3.886719 1.58203,1.386718 4.25781,1.386718 3.33985,0 5.07813,-1.738281 l 1.89453,3.730469 q -2.57813,2.089844 -7.69531,2.089844 -4.78516,0 -7.57813,-2.792969 -2.77344,-2.8125 -2.77344,-7.832031 0,-4.941407 3.04688,-8.007813 3.06641,-3.066406 7.34375,-3.066406 4.55078,0 7.30469,2.714844 2.7539,2.714843 2.7539,6.914062 0,0.898438 -0.41015,2.714844 z M 190.3916,44.090539 h 10.27344 q -0.50781,-4.589844 -5.07813,-4.589844 -4.17968,0 -5.19531,4.589844 z"
     style="font-size:40px;fill:#e41c1c;fill-opacity:1"
     id="path1651" /><path
     d="m 208.18457,55.379601 1.73828,-3.886718 q 2.1875,1.738281 4.94141,1.738281 2.85156,0 2.85156,-2.03125 0,-1.191406 -0.85937,-1.953125 -0.85938,-0.761719 -3.33985,-1.796875 -5.41015,-2.246094 -5.41015,-6.289063 0,-2.714843 2.07031,-4.21875 2.07031,-1.523437 5.29297,-1.523437 3.26172,0 6.13281,1.464844 l -1.40625,3.789062 q -1.60156,-1.367187 -4.45313,-1.367187 -2.55859,0 -2.55859,2.03125 0,0.800781 0.83984,1.445312 0.83985,0.644531 3.59375,1.738281 2.75391,1.074219 3.96485,2.617188 1.21094,1.542969 1.21094,3.730469 0,2.910156 -2.16797,4.589843 -2.14844,1.660157 -5.85938,1.660157 -2.08984,0 -3.35937,-0.351563 -1.25,-0.332031 -3.22266,-1.386719 z"
     style="font-size:40px;fill:#e41c1c;fill-opacity:1"
     id="path1653" /></g><text
   xml:space="preserve"
   style="font-style:normal;font-variant:normal;font-weight:bold;font-stretch:normal;font-size:40px;line-height:0.65;font-family:'Trebuchet MS';-inkscape-font-specification:'Trebuchet MS Bold';fill:#000000;fill-opacity:1;stroke:none"
   x="131.72226"
   y="30.250868"
   id="text623"><tspan
     sodipodi:role="line"
     x="131.72226"
     y="30.250868"
     id="tspan621"
     style="font-size:40px;fill:#e41c1c;fill-opacity:1" /></text><text
   xml:space="preserve"
   style="font-style:normal;font-variant:normal;font-weight:bold;font-stretch:normal;font-size:40px;line-height:0.65;font-family:'Trebuchet MS';-inkscape-font-specification:'Trebuchet MS Bold';fill:#000000;fill-opacity:1;stroke:none"
   x="131.72226"
   y="56.250866"
   id="text627"><tspan
     sodipodi:role="line"
     x="131.72226"
     y="56.250866"
     id="tspan625"
     style="font-size:40px;fill:#e41c1c;fill-opacity:1" /></text><text
   xml:space="preserve"
   style="font-style:normal;font-variant:normal;font-weight:bold;font-stretch:normal;font-size:40px;line-height:0.65;font-family:'Trebuchet MS';-inkscape-font-specification:'Trebuchet MS Bold';fill:#000000;fill-opacity:1;stroke:none"
   x="130.76947"
   y="30.489063"
   id="text1285"><tspan
     sodipodi:role="line"
     x="130.76947"
     y="30.489063"
     id="tspan1283"
     style="font-size:40px;fill:#e41c1c;fill-opacity:1" /></text><text
   xml:space="preserve"
   style="font-style:normal;font-variant:normal;font-weight:bold;font-stretch:normal;font-size:40px;line-height:0.65;font-family:'Trebuchet MS';-inkscape-font-specification:'Trebuchet MS Bold';fill:#000000;fill-opacity:1;stroke:none"
   x="130.76947"
   y="56.489063"
   id="text1289"><tspan
     sodipodi:role="line"
     x="130.76947"
     y="56.489063"
     id="tspan1287"
     style="font-size:40px;fill:#e41c1c;fill-opacity:1" /></text></g>
			</g>
		</g>
	</g>
	
</g>
<rect
   x="-19.200001"
   y="-19.6"
   class="st2"
   width="283.20001"
   height="93.599998"
   id="rect1189" />
</svg>
